<?xml version="1.0" encoding="UTF-8"?>
<svg xmlns="http://www.w3.org/2000/svg" xmlns:xlink="http://www.w3.org/1999/xlink" width="1464px" height="1464px" viewBox="0 0 1464 1464" version="1.1">
<g id="surface1">
<path style=" stroke:none;fill-rule:nonzero;fill:rgb(0%,0%,0%);fill-opacity:1;" d="M 511.753906 75.914062 L 515.785156 75.890625 C 519.484375 75.875 523.1875 75.882812 526.886719 75.902344 C 530.90625 75.917969 534.929688 75.902344 538.953125 75.886719 C 546.003906 75.871094 553.058594 75.871094 560.109375 75.886719 C 570.597656 75.910156 581.085938 75.902344 591.570312 75.886719 C 610.300781 75.863281 629.027344 75.871094 647.757812 75.890625 C 664.144531 75.910156 680.535156 75.914062 696.921875 75.910156 L 700.214844 75.910156 L 713.445312 75.90625 C 754.824219 75.894531 796.203125 75.914062 837.585938 75.953125 C 874.363281 75.984375 911.144531 75.988281 947.925781 75.972656 L 976.175781 75.957031 L 979.691406 75.957031 C 1015.902344 75.945312 1052.113281 75.949219 1088.324219 75.976562 C 1104.703125 75.984375 1121.085938 75.980469 1137.464844 75.972656 C 1156.085938 75.964844 1174.707031 75.972656 1193.332031 76 C 1203.757812 76.015625 1214.183594 76.019531 1224.613281 76.003906 C 1231.570312 75.996094 1238.53125 76.003906 1245.488281 76.027344 C 1249.457031 76.039062 1253.425781 76.042969 1257.394531 76.027344 C 1261.667969 76.015625 1265.9375 76.03125 1270.207031 76.050781 L 1273.960938 76.019531 C 1280.867188 76.09375 1284.890625 76.605469 1290.148438 81.207031 C 1291.898438 83.292969 1291.898438 83.292969 1293.136719 85.429688 L 1294.535156 87.847656 C 1296.753906 92.023438 1298.769531 96.273438 1300.730469 100.578125 C 1304.066406 107.765625 1307.542969 114.835938 1311.308594 121.808594 C 1315.472656 129.527344 1319.265625 137.375 1322.96875 145.320312 C 1325.585938 150.910156 1328.371094 156.417969 1331.324219 161.839844 C 1335.285156 169.101562 1338.851562 176.519531 1342.355469 184.011719 C 1345.074219 189.816406 1347.878906 195.578125 1350.769531 201.300781 C 1354.105469 207.894531 1357.289062 214.550781 1360.417969 221.242188 C 1364.078125 229.050781 1367.96875 236.6875 1372.0625 244.273438 C 1375.824219 251.300781 1379.222656 258.480469 1382.589844 265.703125 C 1385.414062 271.730469 1388.457031 277.582031 1391.699219 283.398438 C 1397.136719 293.335938 1397.835938 302.644531 1397.804688 313.789062 L 1397.808594 317.371094 C 1397.8125 321.347656 1397.808594 325.320312 1397.804688 329.292969 C 1397.808594 339.246094 1397.808594 349.195312 1397.800781 359.144531 C 1397.796875 367.621094 1397.796875 376.097656 1397.796875 384.574219 C 1397.796875 406.03125 1397.785156 427.488281 1397.769531 448.945312 L 1397.757812 466.378906 C 1397.730469 510.800781 1397.691406 555.222656 1397.636719 599.648438 L 1397.632812 602.792969 C 1397.597656 636.457031 1397.585938 670.125 1397.589844 703.789062 C 1397.59375 743.289062 1397.5625 782.785156 1397.503906 822.28125 L 1397.5 825.195312 C 1397.476562 840.679688 1397.480469 856.167969 1397.492188 871.652344 C 1397.503906 887.210938 1397.488281 902.765625 1397.449219 918.324219 C 1397.425781 927.570312 1397.421875 936.816406 1397.445312 946.058594 C 1397.460938 952.957031 1397.441406 959.855469 1397.40625 966.753906 C 1397.398438 969.550781 1397.402344 972.34375 1397.417969 975.136719 C 1397.4375 978.929688 1397.417969 982.71875 1397.382812 986.511719 L 1397.433594 989.820312 C 1397.300781 997.515625 1395.121094 1002.1875 1389.65625 1007.644531 C 1386.132812 1009.992188 1385.449219 1010.214844 1381.488281 1010.203125 L 1378.546875 1010.207031 L 1375.316406 1010.179688 L 1371.886719 1010.179688 C 1368.074219 1010.171875 1364.265625 1010.152344 1360.453125 1010.132812 C 1357.726562 1010.125 1355 1010.121094 1352.273438 1010.117188 C 1346.394531 1010.105469 1340.515625 1010.089844 1334.632812 1010.070312 C 1325.328125 1010.039062 1316.023438 1010.035156 1306.714844 1010.035156 C 1302.726562 1010.035156 1298.738281 1010.035156 1294.746094 1010.035156 C 1285.679688 1010.035156 1276.613281 1010.03125 1267.546875 1010.027344 L 1265.039062 1010.023438 C 1251.632812 1010.015625 1238.226562 1009.976562 1224.820312 1009.925781 C 1211.042969 1009.878906 1197.265625 1009.867188 1183.488281 1009.890625 C 1175.761719 1009.902344 1168.03125 1009.898438 1160.300781 1009.84375 C 1153.023438 1009.796875 1145.742188 1009.792969 1138.460938 1009.832031 C 1135.796875 1009.835938 1133.132812 1009.824219 1130.46875 1009.789062 C 1114.433594 1009.609375 1104.433594 1010.382812 1092.28125 1021.367188 C 1089.992188 1022.816406 1089.992188 1022.816406 1087.992188 1023.871094 C 1083.894531 1026.15625 1080.117188 1028.761719 1076.285156 1031.464844 C 1073.980469 1032.804688 1073.980469 1032.804688 1070.550781 1032.804688 L 1070.550781 1035.09375 C 1068.539062 1036.539062 1068.539062 1036.539062 1065.746094 1038.160156 L 1062.699219 1039.949219 L 1059.46875 1041.8125 C 1051.625 1046.296875 1051.625 1046.296875 1044.292969 1051.542969 C 1041.957031 1053.394531 1041.957031 1053.394531 1038.523438 1053.394531 L 1038.523438 1055.679688 L 1035.09375 1055.679688 L 1035.09375 1057.96875 C 1033.300781 1059.289062 1033.300781 1059.289062 1030.773438 1060.753906 L 1027.945312 1062.414062 L 1024.871094 1064.1875 C 1016.933594 1068.855469 1009.078125 1073.609375 1001.351562 1078.628906 L 998.933594 1080.195312 C 995.917969 1082.164062 992.988281 1084.105469 990.167969 1086.34375 C 988.199219 1087.707031 988.199219 1087.707031 984.769531 1087.707031 L 984.769531 1089.992188 L 981.539062 1091.792969 C 975.707031 1095.128906 970.058594 1098.75 964.394531 1102.359375 L 961.160156 1104.410156 C 954.867188 1108.40625 948.683594 1112.570312 942.613281 1116.894531 C 940.503906 1118.351562 938.328125 1119.703125 936.089844 1120.945312 C 931.921875 1123.292969 928.070312 1125.929688 924.167969 1128.683594 C 921.863281 1130.023438 921.863281 1130.023438 918.429688 1130.023438 L 918.429688 1132.3125 C 916.441406 1133.757812 916.441406 1133.757812 913.667969 1135.378906 L 910.636719 1137.167969 L 907.421875 1139.03125 C 905.359375 1140.242188 903.292969 1141.453125 901.230469 1142.667969 L 898.257812 1144.410156 C 895.96875 1145.789062 893.726562 1147.242188 891.527344 1148.761719 C 888.695312 1150.613281 888.695312 1150.613281 886.40625 1150.613281 L 886.40625 1152.898438 L 883.046875 1154.757812 C 879.683594 1156.675781 876.460938 1158.738281 873.253906 1160.90625 C 860.945312 1169.1875 860.945312 1169.1875 855.523438 1170.054688 L 855.523438 1172.34375 C 852.742188 1174.238281 849.90625 1176.050781 847.019531 1177.777344 C 845.335938 1178.800781 843.652344 1179.832031 841.96875 1180.859375 L 839.492188 1182.371094 C 835.863281 1184.628906 832.359375 1187.066406 828.875 1189.542969 C 826.929688 1190.644531 826.929688 1190.644531 823.5 1190.644531 L 823.5 1192.929688 L 820.140625 1194.789062 C 815.742188 1197.28125 811.632812 1200.113281 807.503906 1203.027344 C 805.199219 1204.367188 805.199219 1204.367188 801.769531 1204.367188 L 801.769531 1206.65625 C 788.730469 1214.226562 776.023438 1221.121094 761.738281 1226.101562 C 760.1875 1226.691406 758.636719 1227.285156 757.089844 1227.886719 C 728.78125 1238.425781 688.121094 1243.878906 658.800781 1234.105469 C 656.730469 1233.902344 654.65625 1233.742188 652.582031 1233.605469 C 643.667969 1232.921875 634.824219 1231.535156 626.132812 1229.460938 C 621.367188 1228.355469 616.65625 1227.949219 611.785156 1227.5625 C 604.28125 1226.84375 596.859375 1225.492188 589.53125 1223.742188 C 584.765625 1222.636719 580.054688 1222.230469 575.1875 1221.84375 C 567.703125 1221.125 560.304688 1219.789062 553.003906 1218.023438 C 547.925781 1216.84375 542.886719 1216.5 537.695312 1216.125 C 531.167969 1215.542969 524.5625 1214.609375 518.214844 1212.945312 C 510.609375 1211.003906 503.277344 1210.890625 495.457031 1210.945312 L 491.582031 1210.917969 L 487.859375 1210.925781 L 484.5 1210.933594 C 481.402344 1211.242188 479.671875 1212.109375 476.945312 1213.519531 L 472.367188 1213.519531 L 472.367188 1215.804688 C 465.792969 1219.238281 465.792969 1219.238281 463.21875 1219.238281 L 463.21875 1221.523438 L 460.144531 1223.242188 C 454.570312 1226.40625 449.175781 1229.867188 443.761719 1233.296875 C 440.949219 1234.902344 438.917969 1235.878906 435.769531 1236.394531 L 435.769531 1238.679688 C 427.273438 1243.746094 427.273438 1243.746094 423.1875 1244.398438 L 423.1875 1246.6875 C 421.160156 1248.1875 421.160156 1248.1875 418.34375 1249.871094 L 415.28125 1251.710938 C 414.210938 1252.339844 413.136719 1252.972656 412.035156 1253.621094 C 410.984375 1254.253906 409.929688 1254.890625 408.84375 1255.542969 C 400.222656 1260.675781 400.222656 1260.675781 395.738281 1261.554688 L 395.738281 1263.84375 C 393.234375 1265.570312 393.234375 1265.570312 390.019531 1267.417969 L 386.800781 1269.285156 L 384.300781 1270.707031 C 385.800781 1279.277344 388.027344 1287.554688 390.496094 1295.894531 C 391.207031 1298.308594 391.910156 1300.726562 392.609375 1303.140625 C 393.332031 1305.625 394.054688 1308.109375 394.777344 1310.59375 C 396.992188 1318.140625 399.46875 1325.578125 402.148438 1332.96875 C 405.359375 1342.066406 407.816406 1350.5625 407.820312 1360.277344 L 407.824219 1362.65625 C 407.652344 1367.828125 406.328125 1371.484375 403.742188 1375.929688 L 401.457031 1375.929688 L 400.671875 1377.933594 C 398.023438 1382.46875 393.71875 1385.46875 388.875 1387.367188 C 386.082031 1387.589844 383.285156 1387.695312 380.484375 1387.683594 L 377.914062 1387.699219 C 375.074219 1387.71875 372.234375 1387.71875 369.390625 1387.71875 C 367.355469 1387.726562 365.316406 1387.738281 363.28125 1387.75 C 357.746094 1387.773438 352.214844 1387.78125 346.679688 1387.789062 C 343.21875 1387.792969 339.761719 1387.800781 336.300781 1387.808594 C 324.234375 1387.835938 312.164062 1387.851562 300.097656 1387.855469 C 288.851562 1387.859375 277.605469 1387.894531 266.359375 1387.941406 C 256.703125 1387.980469 247.046875 1388 237.390625 1388 C 231.625 1388 225.859375 1388.011719 220.089844 1388.042969 C 214.664062 1388.074219 209.238281 1388.074219 203.8125 1388.058594 C 201.824219 1388.054688 199.835938 1388.0625 197.847656 1388.082031 C 186.101562 1388.183594 178.210938 1387.9375 169.25 1379.460938 L 167.703125 1377.503906 L 166.101562 1375.527344 C 162.734375 1371 161.445312 1366.898438 160.195312 1361.492188 C 158.445312 1354.128906 158.445312 1354.128906 156.195312 1346.910156 C 153.53125 1339.324219 151.5625 1331.519531 149.4375 1323.769531 C 148.246094 1319.425781 147.035156 1315.082031 145.828125 1310.738281 L 143.683594 1303.015625 L 107.226562 1171.773438 C 106.40625 1168.820312 105.585938 1165.867188 104.769531 1162.917969 C 103.886719 1159.738281 102.683594 1155.417969 101.46875 1151.105469 C 98.6875 1141.203125 96.0625 1131.285156 93.667969 1121.28125 C 92.796875 1118.019531 91.691406 1114.824219 90.355469 1111.726562 C 88.984375 1108.015625 88.046875 1104.714844 87.496094 1100.789062 C 86.964844 1097.140625 86.097656 1094.488281 84.636719 1091.136719 C 83.265625 1087.425781 82.328125 1084.128906 81.777344 1080.199219 C 81.246094 1076.550781 80.378906 1073.902344 78.917969 1070.550781 C 77.546875 1066.839844 76.609375 1063.539062 76.058594 1059.613281 C 75.527344 1055.964844 74.660156 1053.316406 73.199219 1049.960938 C 71.828125 1046.253906 70.890625 1042.953125 70.339844 1039.023438 C 69.957031 1035.21875 69.957031 1035.21875 68.625 1032.378906 C 65.476562 1024.109375 66.152344 1016.023438 68.625 1007.644531 C 69.347656 1006.101562 70.101562 1004.566406 70.914062 1003.070312 L 73.199219 1003.070312 L 73.988281 1001.066406 C 76.636719 996.523438 80.9375 993.550781 85.78125 991.632812 C 89.40625 991.332031 89.40625 991.332031 93.773438 991.3125 L 96.210938 991.289062 C 98.90625 991.269531 101.605469 991.265625 104.300781 991.261719 L 110.101562 991.230469 C 115.355469 991.199219 120.609375 991.183594 125.863281 991.171875 C 129.144531 991.167969 132.429688 991.15625 135.714844 991.148438 C 145.992188 991.117188 156.273438 991.09375 166.554688 991.085938 C 178.410156 991.074219 190.265625 991.035156 202.125 990.96875 C 211.292969 990.917969 220.464844 990.894531 229.632812 990.890625 C 235.109375 990.890625 240.582031 990.875 246.058594 990.835938 C 251.210938 990.796875 256.363281 990.792969 261.515625 990.8125 C 263.402344 990.816406 265.289062 990.804688 267.175781 990.78125 C 277.636719 990.664062 285.949219 990.859375 293.945312 998.492188 C 300.804688 1005.414062 300.804688 1005.414062 300.804688 1009.929688 C 307.074219 1007.726562 312.882812 1005.113281 318.765625 1002.023438 C 321.179688 1000.882812 323.363281 1000.175781 325.96875 999.636719 L 325.96875 997.351562 L 330.542969 996.207031 L 331.09375 992.015625 C 333.585938 974.082031 338.539062 959.378906 347.699219 943.59375 L 349.515625 940.308594 L 351.132812 937.875 L 353.417969 937.875 L 354.492188 935.730469 L 356.851562 931.011719 L 359.136719 931.011719 L 359.851562 929.152344 C 362.035156 925.386719 364.910156 922.328125 368.289062 919.574219 L 370.574219 919.574219 L 370.574219 917.289062 C 372.566406 915.640625 374.617188 914.066406 376.722656 912.570312 L 380.179688 910.058594 C 383.15625 908.136719 383.15625 908.136719 385.445312 908.136719 L 385.4375 904.199219 C 385.316406 817.078125 385.234375 729.953125 385.191406 642.828125 C 385.171875 613.03125 385.136719 583.234375 385.09375 553.4375 C 385.042969 518.5 385.015625 483.566406 385.007812 448.628906 L 385.007812 446.050781 C 385.003906 432.34375 384.980469 418.640625 384.957031 404.933594 C 384.929688 391.164062 384.917969 377.394531 384.925781 363.625 C 384.929688 356.15625 384.921875 348.695312 384.898438 341.230469 C 384.875 334.402344 384.875 327.574219 384.890625 320.746094 C 384.890625 318.269531 384.886719 315.796875 384.871094 313.320312 C 384.855469 309.964844 384.863281 306.609375 384.882812 303.253906 L 384.84375 300.316406 C 384.914062 294.191406 386.082031 290.875 390.019531 285.9375 C 390.761719 284.546875 391.457031 283.132812 392.105469 281.699219 L 393.148438 279.410156 L 394.238281 277 C 397.355469 270.199219 400.695312 263.5 404.246094 256.914062 C 407.917969 250.097656 411.339844 243.203125 414.609375 236.183594 C 419.082031 226.59375 423.945312 217.261719 428.949219 207.941406 C 431.988281 202.242188 434.886719 196.511719 437.414062 190.566406 C 439.074219 186.722656 440.871094 183.011719 442.773438 179.28125 C 446.066406 172.785156 449.195312 166.222656 452.28125 159.625 C 455.714844 152.308594 459.328125 145.144531 463.199219 138.050781 C 466.253906 132.398438 469.011719 126.628906 471.726562 120.808594 C 476.203125 111.207031 480.992188 101.753906 486.089844 92.464844 C 486.851562 91.066406 487.59375 89.652344 488.3125 88.226562 C 494.136719 77.097656 499.953125 75.785156 511.753906 75.914062 Z M 516.101562 114.859375 L 514.6875 117.804688 L 513.515625 119.894531 C 512.328125 122.101562 511.144531 124.3125 509.96875 126.527344 L 508.621094 129.0625 C 504.738281 136.453125 501.136719 143.960938 497.640625 151.535156 C 495.757812 155.59375 493.832031 159.503906 491.511719 163.332031 C 489.160156 166.964844 489.160156 166.964844 489.523438 171.5625 L 487.238281 171.5625 L 486.109375 174.113281 L 484.59375 177.496094 L 483.105469 180.832031 C 481.597656 183.976562 479.894531 186.886719 478.085938 189.863281 C 477.289062 191.71875 476.5 193.582031 475.71875 195.449219 C 473.308594 200.9375 470.5 206.246094 467.792969 211.59375 C 462.917969 221.234375 458.144531 230.902344 453.570312 240.6875 C 449.785156 248.765625 445.757812 256.722656 441.496094 264.558594 C 436.542969 273.09375 436.542969 273.09375 434.625 282.507812 L 438.320312 282.535156 C 449.816406 282.621094 461.308594 282.722656 472.804688 282.835938 C 478.710938 282.894531 484.621094 282.945312 490.53125 282.988281 C 496.234375 283.03125 501.9375 283.082031 507.640625 283.144531 C 509.816406 283.167969 511.992188 283.183594 514.167969 283.195312 C 517.214844 283.214844 520.261719 283.25 523.308594 283.285156 L 526.035156 283.292969 C 530.75 283.363281 534.464844 283.828125 538.707031 285.9375 L 538.707031 288.226562 L 540.992188 288.226562 C 544.34375 296.390625 544.34375 304.078125 540.992188 312.242188 L 538.707031 312.242188 L 538.707031 314.53125 C 502.230469 329.121094 460.183594 317.5625 420.898438 317.960938 L 420.898438 892.125 C 424.773438 893.417969 426.148438 892.972656 430.050781 892.125 C 432.171875 891.988281 434.296875 891.894531 436.421875 891.84375 L 440.105469 891.730469 C 442.621094 891.660156 445.136719 891.59375 447.652344 891.53125 C 471.402344 890.773438 490.949219 882.34375 507.605469 865.167969 C 512.5625 860.414062 512.5625 860.414062 514.6875 854.382812 L 516.976562 854.382812 C 518.632812 852.53125 518.632812 852.53125 520.261719 850.164062 C 522.300781 847.34375 524.335938 844.628906 526.554688 841.941406 C 528.644531 839.71875 528.644531 839.71875 528.414062 837.226562 L 530.699219 837.226562 C 532.515625 835.261719 532.515625 835.261719 534.273438 832.792969 L 536.140625 830.300781 C 537.765625 828.195312 537.765625 828.195312 537.5625 825.789062 L 539.851562 825.789062 C 541.636719 823.652344 543.351562 821.457031 544.996094 819.210938 C 548.929688 813.976562 552.9375 808.855469 557.148438 803.839844 C 560.792969 799.5 564.433594 795.15625 568.015625 790.761719 L 570.277344 788 C 572.097656 785.90625 572.097656 785.90625 571.875 783.46875 L 574.164062 783.46875 C 576.90625 780.453125 576.90625 780.453125 577.59375 776.605469 L 579.882812 776.605469 L 579.882812 774.320312 L 582.167969 774.320312 C 584.074219 772.792969 584.074219 772.792969 585.601562 770.886719 L 585.601562 768.601562 L 587.886719 768.601562 L 587.886719 766.3125 L 589.929688 765.335938 C 592.226562 764.144531 594.261719 762.835938 596.394531 761.378906 C 614 750.320312 635.164062 747.8125 655.367188 751.652344 C 665.71875 754.46875 674.84375 759.894531 683.6875 765.835938 C 686.28125 767.617188 686.28125 767.617188 689.679688 768.601562 L 689.679688 770.886719 C 691.207031 772.792969 691.207031 772.792969 693.113281 774.320312 L 695.398438 774.320312 L 695.398438 776.605469 L 697.6875 776.605469 L 698.472656 778.394531 C 700.003906 781.402344 700.003906 781.402344 702.621094 784.683594 C 711.027344 796.289062 715.253906 810.460938 715.988281 824.644531 L 716.128906 827.089844 C 716.871094 852.183594 705.027344 872.414062 693.601562 893.761719 C 689.902344 900.730469 686.519531 907.828125 683.167969 914.972656 C 677.578125 926.910156 671.671875 938.691406 665.449219 950.3125 C 661.523438 957.625 661.523438 957.625 657.65625 964.96875 L 656.296875 967.554688 C 655.085938 970.1875 655.085938 970.1875 655.367188 974.476562 L 753.730469 974.476562 L 753.742188 928.511719 C 753.757812 918.910156 753.777344 909.308594 753.804688 899.707031 C 753.84375 884.464844 753.878906 869.21875 753.867188 853.972656 C 753.859375 842.871094 753.875 831.769531 753.921875 820.667969 C 753.945312 814.789062 753.957031 808.914062 753.9375 803.035156 C 753.921875 797.5 753.9375 791.964844 753.976562 786.429688 C 753.984375 784.402344 753.984375 782.375 753.96875 780.34375 C 753.84375 761.84375 753.84375 761.84375 759.9375 755.179688 C 764.953125 751.140625 770.386719 750.898438 776.605469 751.445312 C 783.976562 753.808594 787.972656 757.804688 793.046875 763.523438 C 793.765625 764.308594 794.484375 765.089844 795.222656 765.898438 C 800.414062 771.613281 800.414062 771.613281 801.769531 774.320312 L 804.054688 774.320312 L 804.054688 776.605469 C 805.582031 778.511719 805.582031 778.511719 807.488281 780.039062 L 809.773438 780.039062 L 809.773438 782.324219 L 814.351562 784.613281 C 817.617188 781.402344 820.871094 778.1875 824.125 774.964844 C 825.230469 773.871094 826.339844 772.773438 827.453125 771.683594 C 829.046875 770.117188 830.632812 768.539062 832.222656 766.964844 L 835.125 764.097656 C 837.480469 761.980469 837.480469 761.980469 837.226562 759.449219 L 839.511719 759.449219 L 839.511719 757.164062 L 841.585938 756.160156 C 844.308594 754.820312 844.308594 754.820312 847.519531 752.585938 C 854.316406 751.429688 860.835938 750.96875 866.886719 754.605469 C 869.808594 757.222656 872.410156 759.914062 874.96875 762.882812 L 876.992188 765.144531 C 878.125 766.445312 879.242188 767.757812 880.335938 769.085938 C 882.585938 771.796875 884.953125 774.222656 887.550781 776.605469 L 889.835938 776.605469 L 890.980469 780.039062 L 893.269531 780.039062 L 893.269531 782.324219 L 895.554688 782.324219 L 896.699219 784.613281 C 903.90625 778.535156 911.007812 772.207031 917.289062 765.167969 L 917.289062 762.882812 L 919.503906 761.953125 C 922.242188 760.722656 922.242188 760.722656 923.007812 757.164062 C 925.152344 755.945312 925.152344 755.945312 927.582031 754.875 L 931.011719 752.585938 C 937.421875 751.496094 944.058594 750.960938 949.898438 754.164062 C 952.265625 756.285156 954.515625 758.527344 956.644531 760.890625 C 959.804688 764.347656 963.085938 767.683594 966.371094 771.023438 C 968.234375 772.921875 970.082031 774.835938 971.910156 776.769531 C 972.765625 777.648438 973.621094 778.53125 974.5 779.4375 L 976.824219 781.871094 C 978.933594 783.746094 978.933594 783.746094 981.546875 783.292969 C 984.308594 782.007812 984.644531 780.449219 985.914062 777.75 L 989.34375 776.605469 L 989.34375 774.320312 L 991.632812 774.320312 C 993.269531 772.699219 993.269531 772.699219 994.992188 770.53125 C 1011.714844 751.09375 1011.714844 751.09375 1020.078125 750.167969 C 1026.339844 750.511719 1030.191406 752.25 1034.613281 756.695312 C 1037.886719 760.71875 1038.1875 764.480469 1038.113281 769.539062 L 1038.140625 772.195312 C 1038.164062 775.132812 1038.152344 778.070312 1038.136719 781.007812 C 1038.191406 788.878906 1038.210938 796.753906 1038.191406 804.628906 C 1038.1875 810.007812 1038.214844 815.390625 1038.238281 820.769531 C 1038.296875 836.5 1038.300781 852.230469 1038.3125 867.964844 L 1038.523438 974.476562 L 1359.917969 974.476562 L 1359.917969 317.960938 L 1047.675781 317.960938 L 1046.53125 463.21875 L 1044.242188 466.648438 L 1044.242188 470.082031 L 1041.957031 470.082031 L 1041.957031 472.367188 C 1036.414062 475.257812 1031.113281 474.976562 1025.023438 474.945312 L 1021.574219 474.957031 C 1017.761719 474.964844 1013.945312 474.960938 1010.128906 474.953125 C 1007.394531 474.953125 1004.660156 474.960938 1001.929688 474.964844 C 995.273438 474.972656 988.617188 474.972656 981.964844 474.964844 C 976.554688 474.960938 971.148438 474.960938 965.738281 474.960938 L 963.40625 474.960938 L 958.71875 474.964844 C 944.058594 474.972656 929.402344 474.964844 914.742188 474.953125 C 902.160156 474.941406 889.578125 474.945312 876.996094 474.953125 C 860.054688 474.96875 843.117188 474.972656 826.175781 474.960938 C 820.773438 474.960938 815.367188 474.960938 809.964844 474.96875 C 802.699219 474.972656 795.429688 474.96875 788.160156 474.957031 C 785.488281 474.953125 782.816406 474.953125 780.144531 474.960938 C 776.507812 474.964844 772.871094 474.957031 769.234375 474.945312 L 765.996094 474.960938 L 763.054688 474.945312 L 760.507812 474.941406 C 758.304688 474.65625 758.304688 474.65625 754.875 472.367188 L 751.445312 472.367188 L 750.441406 470.296875 C 749.101562 467.574219 749.101562 467.574219 746.867188 464.363281 C 746.570312 461.652344 746.570312 461.652344 746.550781 458.390625 L 746.511719 454.644531 L 746.503906 450.535156 L 746.46875 446.207031 C 746.441406 442.289062 746.421875 438.371094 746.40625 434.453125 C 746.386719 430.359375 746.359375 426.265625 746.328125 422.171875 C 746.273438 414.417969 746.234375 406.664062 746.195312 398.910156 C 746.152344 390.085938 746.09375 381.257812 746.039062 372.433594 C 745.917969 354.277344 745.816406 336.121094 745.726562 317.960938 L 741.507812 317.933594 C 728.398438 317.847656 715.289062 317.746094 702.179688 317.632812 C 695.4375 317.574219 688.699219 317.523438 681.957031 317.480469 C 675.453125 317.4375 668.949219 317.386719 662.445312 317.324219 C 659.964844 317.300781 657.480469 317.285156 655 317.273438 C 651.527344 317.25 648.050781 317.222656 644.578125 317.183594 L 641.460938 317.175781 C 636.445312 317.109375 632.484375 316.882812 627.917969 314.53125 L 627.917969 312.242188 L 625.632812 312.242188 C 622.28125 304.078125 622.28125 296.390625 625.632812 288.226562 L 627.917969 288.226562 L 627.917969 285.9375 C 632.363281 282.964844 637.0625 283.316406 642.207031 283.332031 L 645.203125 283.3125 C 648.523438 283.292969 651.847656 283.289062 655.167969 283.285156 L 662.300781 283.25 C 668.761719 283.21875 675.226562 283.203125 681.691406 283.1875 C 688.441406 283.167969 695.191406 283.140625 701.945312 283.109375 C 714.730469 283.054688 727.519531 283.015625 740.308594 282.976562 C 757.585938 282.921875 774.863281 282.855469 792.144531 282.785156 C 819.371094 282.679688 846.597656 282.59375 873.824219 282.507812 L 873.824219 112.085938 C 810.6875 111.921875 810.6875 111.921875 747.550781 111.808594 C 737.96875 111.796875 728.390625 111.78125 718.808594 111.769531 C 701.585938 111.746094 684.363281 111.699219 667.136719 111.644531 C 649.472656 111.59375 631.804688 111.5625 614.140625 111.550781 C 603.230469 111.542969 592.324219 111.515625 581.417969 111.46875 C 573.941406 111.441406 566.472656 111.429688 559 111.4375 C 554.683594 111.441406 550.367188 111.4375 546.050781 111.40625 C 541.378906 111.371094 536.707031 111.382812 532.035156 111.398438 L 527.871094 111.351562 L 524.097656 111.382812 L 520.824219 111.378906 C 517.839844 111.855469 517.839844 111.855469 516.101562 114.859375 Z M 910.425781 112.085938 L 910.425781 282.507812 L 1348.480469 282.507812 C 1347.621094 279.070312 1346.8125 276.542969 1345.335938 273.414062 L 1344.101562 270.792969 L 1342.761719 267.996094 L 1341.367188 265.058594 C 1338.402344 258.886719 1335.292969 252.789062 1332.039062 246.765625 C 1323.453125 230.832031 1315.890625 214.363281 1308.449219 197.867188 L 1306.164062 197.867188 L 1305.734375 195.367188 C 1305.03125 192.199219 1304.007812 189.410156 1302.730469 186.429688 L 1300.445312 186.429688 L 1300.15625 184.199219 C 1298.972656 179.378906 1296.878906 175.160156 1294.726562 170.703125 L 1293.332031 167.792969 C 1289.929688 160.734375 1286.3125 153.804688 1282.589844 146.90625 C 1278.75 139.742188 1275.269531 132.425781 1271.855469 125.046875 L 1270.644531 122.433594 L 1269.589844 120.140625 L 1268.417969 117.804688 L 1267.003906 114.84375 C 1265.265625 111.855469 1265.265625 111.855469 1262.289062 111.378906 L 1259.027344 111.382812 L 1255.265625 111.351562 L 1251.113281 111.398438 L 1246.71875 111.386719 C 1242.683594 111.371094 1238.648438 111.394531 1234.613281 111.425781 C 1230.265625 111.449219 1225.917969 111.441406 1221.570312 111.4375 C 1214.035156 111.433594 1206.496094 111.449219 1198.960938 111.484375 C 1188.066406 111.527344 1177.167969 111.542969 1166.273438 111.550781 C 1148.597656 111.5625 1130.917969 111.601562 1113.242188 111.65625 C 1096.070312 111.707031 1078.894531 111.75 1061.722656 111.773438 L 1058.480469 111.777344 L 1033.402344 111.8125 C 992.410156 111.867188 951.417969 111.980469 910.425781 112.085938 Z M 781.179688 317.960938 L 781.179688 439.199219 L 1011.074219 439.199219 L 1011.074219 317.960938 L 953.671875 317.890625 L 935.554688 317.859375 L 924.828125 317.855469 C 922.441406 317.851562 920.050781 317.847656 917.664062 317.84375 C 914.046875 317.832031 910.429688 317.832031 906.8125 317.832031 L 903.59375 317.820312 C 898.808594 317.828125 894.535156 318.128906 889.835938 319.105469 L 886.40625 317.960938 C 883.046875 317.855469 879.714844 317.820312 876.355469 317.832031 L 873.195312 317.832031 C 869.816406 317.832031 866.433594 317.839844 863.054688 317.851562 L 856.796875 317.855469 C 849.058594 317.859375 841.320312 317.875 833.578125 317.890625 Z M 601.609375 805.792969 C 600.257812 807.464844 600.257812 807.464844 600.46875 809.773438 L 598.179688 809.773438 C 596.523438 811.625 596.523438 811.625 594.894531 813.992188 C 592.855469 816.8125 590.820312 819.527344 588.601562 822.214844 C 586.511719 824.4375 586.511719 824.4375 586.742188 826.929688 L 584.457031 826.929688 C 582.359375 829.398438 580.332031 831.925781 578.378906 834.507812 C 577.289062 835.929688 576.199219 837.351562 575.105469 838.769531 L 573.488281 840.886719 C 571.914062 842.894531 570.277344 844.828125 568.609375 846.757812 C 565.917969 849.453125 565.917969 849.453125 566.15625 852.09375 L 563.867188 852.09375 C 561.125 855.109375 561.125 855.109375 560.4375 858.957031 L 558.148438 858.957031 C 556.601562 860.679688 556.601562 860.679688 555.0625 862.9375 C 552.597656 866.335938 550.078125 869.644531 547.40625 872.882812 L 545.453125 875.246094 C 544.128906 876.847656 542.800781 878.449219 541.46875 880.046875 L 539.542969 882.390625 L 537.804688 884.484375 C 536.191406 886.519531 536.191406 886.519531 535.273438 889.835938 L 532.988281 889.835938 C 531.082031 891.363281 531.082031 891.363281 529.554688 893.269531 L 529.554688 895.554688 L 527.269531 895.554688 L 527.269531 897.84375 L 525.277344 898.753906 C 522.542969 900.210938 520.367188 901.890625 517.976562 903.847656 C 508.09375 911.582031 498.125 916.328125 486.375 920.488281 C 482.875 921.488281 482.875 921.488281 481.519531 923.007812 C 469.460938 926.195312 457.5 926.914062 445.074219 927.046875 C 427.386719 927.398438 411.101562 933.101562 396.882812 943.59375 L 394.308594 945.371094 L 392.304688 947.023438 L 392.304688 949.3125 L 388.875 950.457031 L 388.875 952.742188 L 386.585938 952.742188 C 375.394531 966.246094 369.621094 980.378906 367.644531 997.636719 C 367.386719 999.835938 367.125 1002.035156 366.851562 1004.230469 L 366.519531 1007.136719 C 365.953125 1010.1875 364.949219 1012.808594 363.710938 1015.648438 L 361.425781 1015.648438 C 360.15625 1016.957031 358.886719 1018.269531 357.625 1019.585938 C 344.957031 1031.367188 328.226562 1039.300781 312.242188 1045.386719 C 313.011719 1048.625 313.953125 1051.746094 315.03125 1054.894531 C 316.523438 1059.320312 317.824219 1063.773438 319.105469 1068.261719 C 319.671875 1069.980469 320.242188 1071.695312 320.820312 1073.410156 C 322.292969 1077.761719 323.5625 1082.144531 324.824219 1086.5625 C 325.390625 1088.28125 325.960938 1089.996094 326.539062 1091.710938 C 328.011719 1096.058594 329.28125 1100.445312 330.542969 1104.863281 C 331.109375 1106.582031 331.679688 1108.296875 332.257812 1110.007812 C 333.730469 1114.359375 335 1118.746094 336.261719 1123.164062 C 337.089844 1125.644531 337.9375 1128.121094 338.800781 1130.59375 C 339.769531 1133.691406 340.527344 1136.828125 341.300781 1139.980469 C 342.613281 1145.046875 344.167969 1150.042969 345.699219 1155.042969 L 346.761719 1158.539062 C 349.222656 1166.527344 351.800781 1174.476562 354.492188 1182.390625 C 356.605469 1188.652344 358.433594 1194.96875 360.203125 1201.335938 C 361.933594 1207.242188 363.894531 1213.066406 365.878906 1218.890625 C 367.589844 1223.917969 369.15625 1228.992188 370.574219 1234.105469 L 374.007812 1234.105469 L 374.007812 1231.820312 C 374.640625 1231.703125 375.269531 1231.589844 375.921875 1231.476562 C 379.214844 1230.484375 381.636719 1228.910156 384.515625 1227.027344 L 387.871094 1224.847656 C 390.785156 1222.917969 393.691406 1220.976562 396.59375 1219.023438 C 402.199219 1215.265625 407.945312 1211.867188 414.039062 1208.945312 L 414.039062 1206.65625 L 416.492188 1205.757812 C 420 1204.265625 423.03125 1202.460938 426.257812 1200.425781 L 430.023438 1198.066406 L 431.984375 1196.832031 C 461.078125 1178.554688 485.925781 1168.539062 520.585938 1176.007812 C 526.589844 1177.25 532.609375 1177.976562 538.691406 1178.714844 C 542.136719 1179.207031 542.136719 1179.207031 545.570312 1180.351562 C 547.449219 1180.5 549.332031 1180.613281 551.214844 1180.707031 C 557.863281 1181.199219 564.222656 1182.410156 570.730469 1183.78125 C 576.839844 1185.066406 582.785156 1186.285156 589.03125 1186.640625 C 596.300781 1187.054688 603.261719 1188.644531 610.367188 1190.140625 C 615.472656 1191.191406 620.417969 1192.0625 625.632812 1192.359375 C 632.886719 1192.769531 639.835938 1194.355469 646.925781 1195.851562 C 653.46875 1197.203125 659.875 1198.113281 666.558594 1198.449219 C 669.09375 1198.648438 669.09375 1198.648438 672.523438 1199.792969 C 693.277344 1202.582031 715.230469 1201.730469 735.429688 1196.363281 L 739.359375 1195.402344 C 749.46875 1192.777344 758.285156 1188.734375 767.457031 1183.78125 L 770.898438 1181.980469 C 776.777344 1178.855469 782.476562 1175.402344 787.96875 1171.636719 C 792.734375 1168.449219 797.742188 1165.675781 802.914062 1163.195312 L 802.914062 1160.90625 L 805.449219 1159.960938 C 808.472656 1158.6875 811.03125 1157.246094 813.78125 1155.472656 L 816.636719 1153.648438 L 819.570312 1151.757812 C 821.5 1150.515625 823.429688 1149.277344 825.363281 1148.039062 C 826.214844 1147.488281 827.0625 1146.941406 827.9375 1146.378906 C 830.222656 1144.980469 832.523438 1143.761719 834.9375 1142.605469 L 834.9375 1140.320312 L 836.855469 1139.976562 C 840.144531 1138.984375 842.570312 1137.410156 845.445312 1135.527344 L 848.78125 1133.363281 C 852.625 1130.816406 856.445312 1128.246094 860.242188 1125.636719 C 862.386719 1124.304688 862.386719 1124.304688 865.820312 1123.164062 L 865.820312 1120.875 L 868.355469 1119.929688 C 871.378906 1118.65625 873.9375 1117.214844 876.6875 1115.441406 L 879.542969 1113.617188 L 882.476562 1111.726562 C 884.40625 1110.484375 886.335938 1109.246094 888.269531 1108.007812 C 889.121094 1107.457031 889.96875 1106.910156 890.84375 1106.347656 C 893.128906 1104.949219 895.429688 1103.730469 897.84375 1102.574219 L 897.84375 1100.289062 C 898.476562 1100.171875 899.109375 1100.058594 899.761719 1099.945312 C 903.050781 1098.953125 905.476562 1097.378906 908.351562 1095.496094 L 911.6875 1093.332031 C 915.53125 1090.785156 919.351562 1088.214844 923.148438 1085.605469 C 925.292969 1084.273438 925.292969 1084.273438 928.726562 1083.132812 L 928.726562 1080.84375 L 931.15625 1079.953125 C 934.773438 1078.417969 937.957031 1076.550781 941.304688 1074.488281 L 943.242188 1073.300781 C 944.585938 1072.476562 945.925781 1071.648438 947.265625 1070.816406 C 949.300781 1069.554688 951.34375 1068.300781 953.386719 1067.050781 L 957.320312 1064.625 L 960.894531 1062.417969 C 964.0625 1060.335938 966.953125 1058.0625 969.898438 1055.679688 C 971.808594 1054.574219 973.726562 1053.484375 975.652344 1052.414062 C 979.191406 1050.359375 982.53125 1048.019531 985.894531 1045.695312 C 988.199219 1044.242188 988.199219 1044.242188 991.632812 1043.101562 L 991.632812 1040.8125 L 994.0625 1039.921875 C 997.679688 1038.386719 1000.863281 1036.519531 1004.210938 1034.457031 L 1006.148438 1033.269531 C 1007.492188 1032.445312 1008.832031 1031.617188 1010.171875 1030.785156 C 1012.207031 1029.523438 1014.25 1028.269531 1016.292969 1027.019531 L 1020.226562 1024.59375 L 1023.800781 1022.386719 C 1026.96875 1020.304688 1029.863281 1018.035156 1032.804688 1015.648438 L 1035.953125 1013.792969 C 1038.664062 1012.445312 1038.664062 1012.445312 1039.667969 1009.929688 L 1036.972656 1009.929688 C 977.910156 1009.945312 918.851562 1009.90625 859.792969 1009.820312 L 855.972656 1009.816406 C 835.5625 1009.789062 815.152344 1009.789062 794.738281 1009.796875 C 773.800781 1009.800781 752.859375 1009.785156 731.921875 1009.742188 C 718.996094 1009.714844 706.074219 1009.710938 693.148438 1009.730469 C 684.292969 1009.742188 675.433594 1009.730469 666.574219 1009.695312 C 661.460938 1009.679688 656.347656 1009.671875 651.234375 1009.695312 C 646.554688 1009.714844 641.871094 1009.703125 637.191406 1009.667969 C 635.5 1009.660156 633.804688 1009.664062 632.113281 1009.679688 C 617.886719 1009.8125 617.886719 1009.8125 612.664062 1005.472656 C 608.617188 1001.234375 607.496094 997.820312 606.902344 991.988281 C 607.296875 981.277344 613.914062 971.644531 618.847656 962.433594 C 622.613281 955.363281 626.140625 948.164062 629.417969 940.855469 C 631.085938 937.203125 632.746094 934.078125 635.039062 930.75 C 637.480469 927.566406 637.480469 927.566406 637.070312 923.007812 L 639.355469 923.007812 C 641.683594 918.738281 642.789062 916.519531 642.789062 911.570312 L 645.074219 911.570312 C 647.402344 907.300781 648.507812 905.082031 648.507812 900.132812 L 650.792969 900.132812 L 652.683594 896.0625 C 658.222656 884.222656 664.089844 872.539062 670.277344 861.027344 C 671.792969 858.183594 673.28125 855.324219 674.742188 852.449219 L 675.988281 850.007812 C 680.671875 839.53125 681.230469 826.777344 678.601562 815.578125 C 677.53125 813.066406 676.308594 810.910156 674.8125 808.632812 L 673.382812 806.023438 C 669.136719 798.785156 663.710938 794.515625 656.511719 790.332031 L 654.425781 789.074219 C 634.695312 779.542969 614.289062 790.777344 601.609375 805.792969 Z M 850.957031 797.902344 L 848.398438 800.472656 L 845.617188 803.257812 L 842.730469 806.199219 L 839.800781 809.117188 C 834.800781 813.335938 834.800781 813.335938 832.648438 818.925781 L 830.363281 818.925781 L 830.363281 821.210938 L 826.929688 822.355469 L 826.929688 824.644531 C 820.320312 827.628906 813.90625 830.042969 806.773438 828.074219 C 801.894531 825.183594 796.367188 821.847656 793.761719 816.636719 L 791.476562 816.636719 L 790.332031 814.351562 L 790.332031 974.476562 L 1003.070312 974.476562 L 1003.070312 815.492188 C 998.835938 817.609375 997.914062 818.207031 995.347656 821.710938 C 991.691406 826.128906 988.121094 828.179688 982.480469 829.21875 C 972.445312 829.046875 966.445312 822.6875 959.820312 815.921875 L 957.792969 813.894531 C 952.90625 808.953125 952.90625 808.953125 951.601562 806.34375 L 949.3125 806.34375 L 949.3125 804.054688 C 947.789062 802.148438 947.789062 802.148438 945.882812 800.625 L 943.59375 800.625 L 941.304688 796.050781 C 935.570312 796.222656 932.917969 799.398438 929.132812 803.265625 C 927.34375 805.085938 927.34375 805.085938 927.582031 807.488281 L 925.292969 807.488281 C 923.539062 809.222656 923.539062 809.222656 921.71875 811.492188 C 907.503906 828.058594 907.503906 828.058594 898.988281 829.21875 C 890.332031 829.097656 885.394531 824.828125 879.542969 818.925781 L 876.417969 815.882812 C 871.746094 811.3125 867.164062 806.707031 862.960938 801.695312 C 860.265625 798.222656 860.265625 798.222656 856.667969 796.050781 C 853.191406 795.691406 853.191406 795.691406 850.957031 797.902344 Z M 106.367188 1027.085938 C 106.367188 1032.324219 106.679688 1034.023438 108.65625 1038.523438 C 110.027344 1042.234375 110.964844 1045.535156 111.515625 1049.460938 C 112.046875 1053.113281 112.914062 1055.761719 114.375 1059.113281 C 115.746094 1062.824219 116.683594 1066.121094 117.234375 1070.050781 C 117.765625 1073.699219 118.632812 1076.347656 120.09375 1079.699219 C 121.464844 1083.410156 122.402344 1086.710938 122.953125 1090.636719 C 123.484375 1094.289062 124.351562 1096.933594 125.8125 1100.289062 C 127.183594 1103.996094 128.121094 1107.296875 128.671875 1111.222656 C 129.0625 1114.992188 129.0625 1114.992188 130.257812 1117.675781 C 131.890625 1121.777344 133.023438 1125.984375 134.175781 1130.238281 L 135.695312 1135.773438 L 136.472656 1138.628906 C 137.699219 1143.105469 138.9375 1147.574219 140.179688 1152.042969 L 140.894531 1154.625 C 142.390625 1159.992188 143.914062 1165.351562 145.472656 1170.699219 C 146.925781 1175.746094 148.191406 1180.84375 149.265625 1185.984375 C 150.085938 1189.429688 151.277344 1192.730469 152.441406 1196.078125 C 153.257812 1198.636719 153.859375 1201.167969 154.40625 1203.796875 C 155.101562 1207.109375 155.9375 1210.253906 157.050781 1213.445312 C 159.734375 1221.210938 161.78125 1229.167969 163.949219 1237.085938 C 165.140625 1241.433594 166.351562 1245.777344 167.558594 1250.117188 C 168.273438 1252.691406 168.988281 1255.265625 169.703125 1257.839844 L 184 1309.308594 L 185.425781 1314.429688 C 186.65625 1318.859375 187.878906 1323.289062 189.085938 1327.722656 L 189.84375 1330.492188 C 190.316406 1332.222656 190.785156 1333.953125 191.25 1335.6875 C 192.785156 1341.28125 194.667969 1346.429688 196.726562 1351.914062 L 366 1351.914062 C 367.390625 1349.730469 367.390625 1349.730469 366.699219 1347.589844 L 365.875 1345.128906 L 364.980469 1342.394531 L 364 1339.472656 C 361.925781 1333.148438 359.933594 1326.878906 358.421875 1320.386719 C 357.207031 1315.222656 355.519531 1310.496094 353.378906 1305.644531 C 352.210938 1302.558594 351.433594 1299.449219 350.664062 1296.246094 C 349.316406 1290.941406 347.660156 1285.726562 346.054688 1280.5 L 345.015625 1277.082031 C 342.964844 1270.351562 340.808594 1263.648438 338.550781 1256.980469 C 334.84375 1245.824219 333.84375 1242.253906 332.832031 1238.679688 C 329.601562 1227.484375 326.203125 1216.332031 322.644531 1205.234375 C 320.710938 1199.136719 319.105469 1193.023438 317.636719 1186.796875 C 316.550781 1182.789062 315.023438 1179.050781 313.347656 1175.257812 C 312.160156 1172.121094 311.378906 1168.953125 310.597656 1165.699219 C 309.464844 1161.277344 308.007812 1156.953125 306.597656 1152.613281 C 304.605469 1146.429688 302.71875 1140.285156 301.234375 1133.957031 C 300.011719 1128.765625 298.316406 1123.992188 296.191406 1119.101562 C 294.796875 1115.558594 293.8125 1111.964844 292.800781 1108.292969 C 289.570312 1097.09375 286.171875 1085.945312 282.613281 1074.847656 C 280.679688 1068.75 279.074219 1062.636719 277.605469 1056.410156 C 276.496094 1052.320312 274.898438 1048.503906 273.253906 1044.605469 C 271.738281 1040.75 270.882812 1036.835938 269.925781 1032.804688 L 267.636719 1027.085938 Z M 106.367188 1027.085938 "/>
<path style=" stroke:none;fill-rule:nonzero;fill:rgb(0%,0%,0%);fill-opacity:1;" d="M 503.25 453.640625 L 506.753906 453.613281 C 510.5625 454.128906 512.773438 455.195312 515.832031 457.5 L 515.832031 459.789062 L 518.117188 459.789062 C 521.1875 465.078125 521.980469 468.894531 521.984375 474.984375 L 522 477.449219 C 522.015625 480.164062 522.003906 482.875 521.992188 485.589844 C 522 487.539062 522.003906 489.488281 522.011719 491.441406 C 522.027344 496.730469 522.019531 502.015625 522.011719 507.304688 C 522 512.84375 522.011719 518.382812 522.015625 523.917969 C 522.023438 533.21875 522.011719 542.519531 521.996094 551.816406 C 521.980469 562.566406 521.984375 573.3125 522.003906 584.058594 C 522.019531 593.289062 522.019531 602.523438 522.011719 611.753906 C 522.007812 617.265625 522.007812 622.777344 522.019531 628.289062 C 522.027344 633.472656 522.019531 638.652344 522 643.835938 C 521.996094 645.738281 521.996094 647.636719 522.003906 649.539062 C 522.015625 652.132812 522.003906 654.730469 521.984375 657.328125 L 521.980469 661.730469 C 521.511719 666.011719 520.265625 668.820312 518.117188 672.523438 L 515.832031 672.523438 L 514.6875 675.957031 C 510.507812 678.742188 508.296875 678.585938 503.320312 678.601562 L 499.074219 678.660156 C 495.074219 678.226562 493.441406 677.667969 490.667969 674.8125 L 490.667969 672.523438 L 488.382812 672.523438 C 485.3125 667.234375 484.519531 663.417969 484.515625 657.328125 L 484.5 654.863281 C 484.484375 652.148438 484.496094 649.4375 484.507812 646.722656 C 484.5 644.773438 484.496094 642.824219 484.488281 640.871094 C 484.472656 635.582031 484.480469 630.296875 484.488281 625.007812 C 484.5 619.46875 484.488281 613.929688 484.484375 608.394531 C 484.476562 599.09375 484.488281 589.792969 484.503906 580.496094 C 484.519531 569.746094 484.515625 559 484.496094 548.253906 C 484.480469 539.023438 484.480469 529.789062 484.488281 520.558594 C 484.492188 515.046875 484.492188 509.535156 484.480469 504.023438 C 484.472656 498.839844 484.480469 493.660156 484.5 488.476562 C 484.503906 486.574219 484.503906 484.675781 484.496094 482.773438 C 484.484375 480.179688 484.496094 477.582031 484.515625 474.984375 L 484.519531 470.582031 C 484.988281 466.300781 486.234375 463.492188 488.382812 459.789062 L 490.667969 459.789062 L 490.667969 457.5 C 494.878906 454.324219 498.03125 453.601562 503.25 453.640625 Z M 282.507812 1256.980469 L 284.785156 1258.363281 C 293.878906 1264.503906 301.964844 1274.667969 304.238281 1285.574219 C 306.457031 1299.835938 305.359375 1313.304688 297.375 1325.605469 C 287.394531 1338.734375 275.898438 1345.273438 259.617188 1347.675781 C 250.523438 1348.300781 241.792969 1344.527344 233.324219 1341.617188 L 233.324219 1339.332031 L 231.25 1338.902344 C 228.75 1338.1875 228.75 1338.1875 225.320312 1335.898438 L 225.320312 1333.613281 L 221.886719 1332.46875 L 221.886719 1330.179688 L 219.601562 1330.179688 C 216.972656 1327.253906 216.167969 1326.199219 216.167969 1322.175781 L 213.882812 1322.175781 C 207.992188 1309.324219 205.699219 1296.347656 210.402344 1282.648438 C 214.046875 1274.09375 219.050781 1266.183594 226.460938 1260.414062 L 228.75 1260.414062 L 228.75 1258.125 C 244.148438 1247.058594 266.589844 1247.28125 282.507812 1256.980469 Z M 247.050781 1291.292969 C 245.675781 1295.417969 245.53125 1298.394531 245.90625 1302.730469 C 247.664062 1306.105469 248.949219 1307.933594 252.621094 1309.175781 C 256.753906 1309.910156 259.046875 1309.859375 262.917969 1308.09375 C 266.527344 1305.480469 266.527344 1305.480469 267.941406 1301.519531 L 267.921875 1298.800781 L 267.941406 1296.089844 C 267.789062 1293.25 267.789062 1293.25 265.351562 1290.148438 L 263.0625 1290.148438 L 263.0625 1287.863281 C 261.253906 1287.773438 259.441406 1287.699219 257.628906 1287.648438 L 254.574219 1287.527344 C 251.046875 1287.925781 249.582031 1288.847656 247.050781 1291.292969 Z M 503.25 381.582031 L 506.753906 381.558594 C 510.5625 382.074219 512.773438 383.136719 515.832031 385.445312 L 515.832031 387.730469 L 518.117188 387.730469 C 522.480469 394.359375 522.179688 400.996094 522.195312 408.746094 L 522.320312 412.554688 C 522.363281 420.191406 521.480469 424.789062 516.417969 430.621094 C 512.304688 434.703125 509.207031 436 503.464844 436.410156 C 497.828125 436.242188 494.640625 434.457031 490.316406 430.964844 C 486.097656 426.476562 484.515625 422.765625 484.492188 416.617188 L 484.480469 412.855469 L 484.519531 408.960938 L 484.480469 405.082031 C 484.503906 398.386719 484.617188 393.375 488.382812 387.730469 L 490.667969 387.730469 L 490.667969 385.445312 C 494.878906 382.269531 498.03125 381.542969 503.25 381.582031 Z M 503.25 381.582031 "/>
</g>
</svg>
