<?xml version="1.0" encoding="UTF-8"?>
<!-- Generator: visioncortex VTracer 0.6.2 -->
<svg version="1.1" xmlns="http://www.w3.org/2000/svg" width="1280" height="1280">
<path d="M0 0 C1.16334983 -0.00696761 2.32669967 -0.01393521 3.52530253 -0.02111396 C6.76041219 -0.03540768 9.99457642 -0.02725876 13.22964175 -0.00972402 C16.74675637 0.00384685 20.26376284 -0.01154914 23.78086758 -0.02327484 C29.94697619 -0.03980934 36.11286152 -0.03770448 42.27897263 -0.02344799 C51.44804208 -0.00230632 60.616933 -0.00970645 69.78600946 -0.02282321 C86.16048218 -0.04530068 102.53485182 -0.03927234 118.90932468 -0.02138711 C133.23870772 -0.00583224 147.56805458 0.00003586 161.89744568 -0.00372791 C162.84719638 -0.00396471 163.79694709 -0.00420151 164.77547812 -0.00444549 C168.63062865 -0.00542038 172.48577918 -0.00644119 176.34092968 -0.00753059 C212.52023393 -0.01761828 248.6994746 0.00066418 284.8787639 0.03218976 C317.03622825 0.06005133 349.19361701 0.06501449 381.35108948 0.04999638 C389.58511348 0.04617408 397.81913749 0.04237932 406.05316162 0.03882599 C407.0668026 0.03838817 408.08044357 0.03795036 409.12480094 0.03749928 C435.97914991 0.0262647 462.83349331 0.03360452 489.68784046 0.04670674 C492.57670537 0.04809534 495.46557029 0.04947604 498.35443521 0.05084516 C500.27090834 0.05175454 502.18738147 0.05267721 504.10385459 0.05361326 C518.42576553 0.06041505 532.74765465 0.05774364 547.06956482 0.05066586 C563.35090896 0.04270772 579.63217696 0.04923525 595.91350436 0.0748409 C605.03052922 0.08878747 614.14740081 0.09172352 623.26442821 0.07890619 C629.34904449 0.07146273 635.43353134 0.078494 641.51812236 0.0974643 C644.98842587 0.10788032 648.45842022 0.1119243 651.92872036 0.09848576 C655.66275952 0.08737456 659.39592805 0.10063256 663.12991333 0.12025452 C664.21301714 0.1111757 665.29612094 0.10209688 666.41204607 0.09274295 C672.4476258 0.15502471 675.964481 0.60257433 680.56495667 4.62641239 C682.0952301 6.45282841 682.0952301 6.45282841 683.17433167 8.31781864 C683.57845276 9.01536259 683.98257385 9.71290653 684.39894104 10.43158817 C686.3391871 14.08376825 688.09995824 17.80157581 689.81495667 21.56391239 C692.73235783 27.84980868 695.7710744 34.02937939 699.06495667 40.12641239 C702.70496259 46.87329606 706.02125797 53.73397932 709.26026917 60.68109989 C711.55725056 65.57919261 713.97456999 70.37747741 716.56495667 75.12641239 C720.02603493 81.477323 723.14385229 87.95943683 726.20948792 94.50922489 C728.58893831 99.5870211 731.03452406 104.62224097 733.56495667 109.62641239 C736.48078001 115.39286055 739.26477561 121.21093909 742.00245667 127.06391239 C745.20112295 133.8899322 748.60424785 140.56550472 752.18312073 147.19892216 C755.47386134 153.34359844 758.44251535 159.61996405 761.38771057 165.9359827 C763.85672088 171.20626501 766.51709258 176.32235166 769.35011292 181.40766239 C774.10563691 190.09299238 774.71478498 198.23204705 774.689147 207.97637939 C774.69041005 209.01027911 774.69167309 210.04417882 774.69297442 211.10940883 C774.69596866 214.58440718 774.69178553 218.05935949 774.68762207 221.53435612 C774.68822379 224.04669952 774.68925011 226.55904285 774.6906653 229.07138592 C774.69295147 235.25863695 774.6904849 241.44587124 774.68595664 247.63312055 C774.68076712 255.04453658 774.68133485 262.45594946 774.68187237 269.86736688 C774.68284678 288.62742268 774.67173163 307.38746678 774.65839538 326.14751706 C774.65478712 331.22793693 774.65142827 336.30835696 774.64809346 341.38877702 C774.62723135 372.92520875 774.60199424 404.46163532 774.56680965 435.9980545 C774.55871644 443.30133844 774.55069642 450.60462245 774.54273987 457.90790653 C774.54174669 458.81523946 774.54075352 459.72257238 774.53973025 460.65740024 C774.50766324 490.09231286 774.49762841 519.52717883 774.49999172 548.96210734 C774.50232644 579.2231134 774.48530861 609.48404359 774.44280251 639.74502167 C774.43680446 644.01705486 774.43101342 648.28908831 774.42534065 652.56112194 C774.42365298 653.82228257 774.42365298 653.82228257 774.42193122 655.1089212 C774.40435411 668.64814011 774.40697416 682.1872834 774.41695273 695.72650687 C774.42650544 709.32853642 774.4141174 722.93040702 774.37930834 736.53239661 C774.35927389 744.61595676 774.35594423 752.69912301 774.37644321 760.78268417 C774.38990047 766.81412398 774.37218172 772.84504385 774.34220511 778.87644196 C774.33495177 781.31982268 774.33789035 783.76325864 774.35188936 786.20661002 C774.36940824 789.52204088 774.35018838 792.83529644 774.32165432 796.15060425 C774.34246215 797.58164825 774.34246215 797.58164825 774.36369035 799.04160222 C774.24884171 805.77153932 772.34261108 809.8543371 767.56495667 814.62641239 C764.4861771 816.6789321 763.88825457 816.87528356 760.42148781 816.86298561 C759.57358323 816.86490081 758.72567865 816.86681602 757.85207999 816.86878926 C756.45440203 816.85667854 756.45440203 816.85667854 755.02848816 816.84432316 C753.54382162 816.84348662 753.54382162 816.84348662 752.02916181 816.84263319 C748.69676572 816.83854873 745.36459023 816.82033284 742.03224182 816.80243778 C739.64898376 816.79700469 737.26572323 816.79257297 734.88246155 816.78907108 C729.74071866 816.7802217 724.59902872 816.76592651 719.45730972 816.74798107 C711.32109316 816.72043827 703.18494706 816.71701571 695.0486908 816.71807194 C693.66210894 816.71812635 692.27552708 816.71816396 690.88894522 816.71818501 C688.78729741 816.71822499 686.6856496 816.71826969 684.58400179 816.71836307 C676.65756698 816.7185758 668.7311356 816.71571998 660.80470276 816.71015263 C660.08009929 816.70965144 659.35549583 816.70915026 658.60893469 816.70863389 C646.88753703 816.69968925 635.16633361 816.66484062 623.44501694 816.62211365 C611.39997662 816.57900287 599.35523579 816.57045131 587.31013715 816.59192365 C580.55162524 816.60286942 573.79393797 816.5974487 567.03555679 816.55077648 C560.67074507 816.50815474 554.30729411 816.50759433 547.94242859 816.53862858 C545.61287682 816.54256279 543.2832388 816.53123837 540.95385361 816.50310421 C526.93233905 816.34381843 518.19097412 817.02148778 507.56495667 826.62641239 C505.56525612 827.89245033 505.56525612 827.89245033 503.81495667 828.81391239 C500.23137225 830.81244985 496.92967268 833.08909549 493.58058167 835.45453739 C491.56495667 836.62641239 491.56495667 836.62641239 488.56495667 836.62641239 C488.56495667 837.28641239 488.56495667 837.94641239 488.56495667 838.62641239 C486.80836487 839.89154911 486.80836487 839.89154911 484.36573792 841.30609989 C483.48595276 841.82301395 482.6061676 842.33992802 481.69972229 842.87250614 C480.76837463 843.4100452 479.83702698 843.94758427 478.87745667 844.50141239 C472.01771613 848.42093528 472.01771613 848.42093528 465.60792542 853.00922489 C463.56495667 854.62641239 463.56495667 854.62641239 460.56495667 854.62641239 C460.56495667 855.28641239 460.56495667 855.94641239 460.56495667 856.62641239 C459.57495667 856.62641239 458.58495667 856.62641239 457.56495667 856.62641239 C457.56495667 857.28641239 457.56495667 857.94641239 457.56495667 858.62641239 C455.99879456 859.78046513 455.99879456 859.78046513 453.78761292 861.06000614 C452.97163635 861.53897343 452.15565979 862.01794071 451.31495667 862.51142216 C450.42808167 863.02374393 449.54120667 863.53606571 448.62745667 864.06391239 C441.68680255 868.14602774 434.81714853 872.30114451 428.06495667 876.68891239 C427.36636536 877.14129276 426.66777405 877.59367313 425.94801331 878.059762 C423.31250018 879.77868812 420.75109101 881.47884355 418.28370667 883.43500614 C416.56495667 884.62641239 416.56495667 884.62641239 413.56495667 884.62641239 C413.56495667 885.28641239 413.56495667 885.94641239 413.56495667 886.62641239 C412.63296448 887.14590458 411.70097229 887.66539677 410.74073792 888.20063114 C405.64184167 891.11593372 400.70445519 894.28273065 395.75245667 897.43891239 C394.35156799 898.32546513 394.35156799 898.32546513 392.92237854 899.22992802 C387.41549003 902.73431162 382.02011157 906.3541868 376.70704651 910.14643192 C374.84268775 911.43452661 372.98064552 912.58791415 371.00245667 913.68891239 C367.36139362 915.74114792 363.99182669 918.0451965 360.58058167 920.45453739 C358.56495667 921.62641239 358.56495667 921.62641239 355.56495667 921.62641239 C355.56495667 922.28641239 355.56495667 922.94641239 355.56495667 923.62641239 C353.82423401 924.89154911 353.82423401 924.89154911 351.40089417 926.30609989 C350.52562073 926.82301395 349.65034729 927.33992802 348.74855042 927.87250614 C347.82171448 928.4100452 346.89487854 928.94758427 345.93995667 929.50141239 C344.13448416 930.55997045 342.329778 931.61983685 340.52589417 932.68109989 C339.23957092 933.43471806 339.23957092 933.43471806 337.92726135 934.20356083 C335.91562767 935.41519799 333.9735294 936.67619655 332.04151917 938.00922489 C329.56495667 939.62641239 329.56495667 939.62641239 327.56495667 939.62641239 C327.56495667 940.28641239 327.56495667 940.94641239 327.56495667 941.62641239 C326.11089417 942.43078739 326.11089417 942.43078739 324.62745667 943.25141239 C321.68596761 944.92716979 318.8696213 946.73097866 316.06495667 948.62641239 C305.30290007 955.86834145 305.30290007 955.86834145 300.56495667 956.62641239 C300.56495667 957.28641239 300.56495667 957.94641239 300.56495667 958.62641239 C298.11474154 960.29797019 295.66771229 961.85287811 293.12745667 963.37641239 C291.65534573 964.27360937 290.18398676 965.17204137 288.71339417 966.07172489 C287.64169983 966.72576298 287.64169983 966.72576298 286.5483551 967.39301395 C283.37292805 969.36768868 280.3106734 971.49881031 277.26417542 973.66547489 C275.56495667 974.62641239 275.56495667 974.62641239 272.56495667 974.62641239 C272.56495667 975.28641239 272.56495667 975.94641239 272.56495667 976.62641239 C271.11089417 977.43078739 271.11089417 977.43078739 269.62745667 978.25141239 C265.78322097 980.42798576 262.18712629 982.90725762 258.58058167 985.45453739 C256.56495667 986.62641239 256.56495667 986.62641239 253.56495667 986.62641239 C253.56495667 987.28641239 253.56495667 987.94641239 253.56495667 988.62641239 C242.16354739 995.24711547 231.05659216 1001.2741231 218.56495667 1005.62641239 C217.2092516 1006.14322813 215.85493299 1006.66370529 214.50245667 1007.18891239 C189.75092666 1016.40225857 154.20063499 1021.1716385 128.56495667 1012.62641239 C126.75537285 1012.44800272 124.94197632 1012.3069887 123.12745667 1012.18891239 C115.30173644 1011.5840258 107.63753142 1010.38437506 100.00245667 1008.56391239 C95.83621795 1007.59728506 91.71686199 1007.24315519 87.45948792 1006.90375614 C80.89822527 1006.27507915 74.4105535 1005.09454515 68.00245667 1003.56391239 C63.83621795 1002.59728506 59.71686199 1002.24315519 55.45948792 1001.90375614 C48.91823579 1001.27699649 42.44932626 1000.10814619 36.06495667 998.56391239 C31.62694729 997.53237508 27.21873392 997.23274548 22.68214417 996.90375614 C16.9753673 996.39601033 11.19747023 995.58119161 5.64967346 994.12299442 C-0.99945064 992.42801588 -7.41008466 992.32828952 -14.24754333 992.37641239 C-15.36580505 992.36867802 -16.48406677 992.36094364 -17.63621521 992.35297489 C-18.7106488 992.35555302 -19.7850824 992.35813114 -20.89207458 992.36078739 C-21.86120789 992.36304325 -22.83034119 992.36529911 -23.82884216 992.36762333 C-26.53646102 992.63648291 -28.05103686 993.39481331 -30.43504333 994.62641239 C-31.75504333 994.62641239 -33.07504333 994.62641239 -34.43504333 994.62641239 C-34.43504333 995.28641239 -34.43504333 995.94641239 -34.43504333 996.62641239 C-40.18504333 999.62641239 -40.18504333 999.62641239 -42.43504333 999.62641239 C-42.43504333 1000.28641239 -42.43504333 1000.94641239 -42.43504333 1001.62641239 C-43.32191833 1002.12141239 -44.20879333 1002.61641239 -45.12254333 1003.12641239 C-49.99730406 1005.89343846 -54.71245264 1008.92079972 -59.44676208 1011.91938114 C-61.90413407 1013.32313481 -63.68028473 1014.17733982 -66.43504333 1014.62641239 C-66.43504333 1015.28641239 -66.43504333 1015.94641239 -66.43504333 1016.62641239 C-73.86361476 1021.05498382 -73.86361476 1021.05498382 -77.43504333 1021.62641239 C-77.43504333 1022.28641239 -77.43504333 1022.94641239 -77.43504333 1023.62641239 C-79.20750427 1024.93915653 -79.20750427 1024.93915653 -81.66941833 1026.41156864 C-82.55371521 1026.94201786 -83.43801208 1027.47246708 -84.34910583 1028.01899052 C-85.28496521 1028.57006474 -86.22082458 1029.12113895 -87.18504333 1029.68891239 C-88.10543396 1030.2438538 -89.02582458 1030.7987952 -89.97410583 1031.37055302 C-97.51461463 1035.85660934 -97.51461463 1035.85660934 -101.43504333 1036.62641239 C-101.43504333 1037.28641239 -101.43504333 1037.94641239 -101.43504333 1038.62641239 C-103.62254333 1040.13422489 -103.62254333 1040.13422489 -106.43504333 1041.75141239 C-107.36316833 1042.29024052 -108.29129333 1042.82906864 -109.24754333 1043.38422489 C-109.96941833 1043.79414677 -110.69129333 1044.20406864 -111.43504333 1044.62641239 C-110.12270713 1052.12054283 -108.17693737 1059.35643361 -106.01902771 1066.64789677 C-105.39600318 1068.75867886 -104.78213948 1070.87199257 -104.16941833 1072.98578739 C-103.73737638 1074.47023509 -103.3050886 1075.95461127 -102.87254333 1077.43891239 C-102.67491394 1078.11961796 -102.47728455 1078.80032352 -102.27366638 1079.50165653 C-100.33823193 1086.09744491 -98.17302627 1092.60218376 -95.82957458 1099.06391239 C-93.02149325 1107.01971069 -90.87535901 1114.44683289 -90.87254333 1122.93891239 C-90.87036804 1123.62533817 -90.86819275 1124.31176395 -90.86595154 1125.01899052 C-91.01549217 1129.53993426 -92.17509512 1132.73930146 -94.43504333 1136.62641239 C-95.09504333 1136.62641239 -95.75504333 1136.62641239 -96.43504333 1136.62641239 C-96.66191833 1137.20391239 -96.88879333 1137.78141239 -97.12254333 1138.37641239 C-99.43639232 1142.34301065 -103.2001164 1144.96537465 -107.43504333 1146.62641239 C-109.918215 1146.82138187 -112.2890772 1146.90924324 -114.77165222 1146.90056705 C-115.88312178 1146.90842207 -115.88312178 1146.90842207 -117.01704526 1146.91643578 C-119.50115905 1146.93144323 -121.985067 1146.93214109 -124.46922302 1146.93280888 C-126.24991707 1146.94042995 -128.03060783 1146.94885736 -129.81129456 1146.95803165 C-134.65028983 1146.97999075 -139.4892219 1146.98877765 -144.32826138 1146.9938581 C-147.35223834 1146.9975005 -150.37619872 1147.00374001 -153.40016937 1147.01085949 C-163.95216601 1147.03536049 -174.50411346 1147.04840695 -185.05613708 1147.0519495 C-194.88778573 1147.05558357 -204.71912197 1147.08546813 -214.55067515 1147.12735409 C-222.99413394 1147.16206348 -231.43748924 1147.17749807 -239.88101888 1147.17819554 C-244.92274519 1147.17898823 -249.96415344 1147.18772342 -255.00580597 1147.2161932 C-259.75014892 1147.24238434 -264.49391039 1147.24457319 -269.23829269 1147.22853756 C-270.97651056 1147.22672381 -272.71476193 1147.23340719 -274.45290756 1147.24935627 C-284.72161774 1147.33781199 -291.62328007 1147.12402629 -299.45848083 1139.71234989 C-299.90449646 1139.14774052 -300.35051208 1138.58313114 -300.81004333 1138.00141239 C-301.27152771 1137.43164677 -301.73301208 1136.86188114 -302.20848083 1136.27484989 C-305.15482725 1132.31511045 -306.2801923 1128.72933729 -307.37254333 1124.00141239 C-308.90375054 1117.56433199 -308.90375054 1117.56433199 -310.87254333 1111.25141239 C-313.20031015 1104.6204226 -314.92265834 1097.79590222 -316.77781677 1091.02143192 C-317.82084956 1087.22048405 -318.87840002 1083.42359442 -319.93504333 1079.62641239 C-320.35178562 1078.1264334 -320.76845215 1076.62643336 -321.18504333 1075.12641239 C-321.39129333 1074.38391239 -321.59754333 1073.64141239 -321.81004333 1072.87641239 C-337.74754333 1015.50141239 -337.74754333 1015.50141239 -353.68504333 958.12641239 C-353.8913739 957.38375126 -354.09770447 956.64109013 -354.31028748 955.87592411 C-354.72640904 954.37762631 -355.14226241 952.87925401 -355.55784607 951.38080692 C-356.60565354 947.60410329 -357.65825673 943.82885519 -358.72019958 940.05609989 C-361.15095153 931.39810751 -363.4454403 922.72769145 -365.54051208 913.98188114 C-366.31900786 911.06167212 -367.24996908 908.39968043 -368.43504333 905.62641239 C-369.63379842 902.38272216 -370.45310851 899.49769799 -370.93504333 896.06391239 C-371.39923668 892.87258312 -372.15723463 890.55785588 -373.43504333 887.62641239 C-374.63379842 884.38272216 -375.45310851 881.49769799 -375.93504333 878.06391239 C-376.39923668 874.87258312 -377.15723463 872.55785588 -378.43504333 869.62641239 C-379.63379842 866.38272216 -380.45310851 863.49769799 -380.93504333 860.06391239 C-381.39923668 856.87258312 -382.15723463 854.55785588 -383.43504333 851.62641239 C-384.63379842 848.38272216 -385.45310851 845.49769799 -385.93504333 842.06391239 C-386.27220021 838.73497144 -386.27220021 838.73497144 -387.43504333 836.25141239 C-390.18889538 829.02255077 -389.59813093 821.95055109 -387.43504333 814.62641239 C-386.80262928 813.27649584 -386.14572044 811.93681701 -385.43504333 810.62641239 C-384.77504333 810.62641239 -384.11504333 810.62641239 -383.43504333 810.62641239 C-383.09473083 809.76016239 -383.09473083 809.76016239 -382.74754333 808.87641239 C-380.43003613 804.9035429 -376.66908403 802.30379749 -372.43504333 800.62641239 C-369.26618671 800.36355686 -369.26618671 800.36355686 -365.44683838 800.3455286 C-364.39155513 800.33661524 -364.39155513 800.33661524 -363.31495303 800.3275218 C-360.95755531 800.31017879 -358.6003611 800.30713404 -356.24290466 800.30414677 C-354.55250109 800.29488806 -352.86210169 800.28483842 -351.17170715 800.27405643 C-346.57851258 800.24782388 -341.98537646 800.23492122 -337.39211869 800.22603512 C-334.52090244 800.22017021 -331.64970211 800.21195987 -328.77849388 800.20302677 C-319.79074548 800.17567887 -310.80303353 800.15634547 -301.8152464 800.14862299 C-291.448544 800.13966631 -281.08236963 800.10459159 -270.71582776 800.0466218 C-262.69782747 800.00334559 -254.6799755 799.98321213 -246.66185969 799.98054075 C-241.87544906 799.97844737 -237.08953486 799.96669189 -232.30324745 799.93090153 C-227.79766474 799.89786593 -223.29294957 799.89366339 -218.78728867 799.91117954 C-217.13817071 799.91271651 -215.48900542 799.90408419 -213.84000587 799.88426304 C-204.69366115 799.78081481 -197.42398109 799.94993547 -190.43504333 806.62641239 C-184.43504333 812.67676686 -184.43504333 812.67676686 -184.43504333 816.62641239 C-178.95551436 814.69842997 -173.87464335 812.41473724 -168.73191833 809.71234989 C-166.62220856 808.71490207 -164.71268496 808.09656777 -162.43504333 807.62641239 C-162.43504333 806.96641239 -162.43504333 806.30641239 -162.43504333 805.62641239 C-161.11504333 805.29641239 -159.79504333 804.96641239 -158.43504333 804.62641239 C-158.27648865 803.41727177 -158.11793396 802.20813114 -157.95457458 800.96234989 C-155.77407016 785.2839442 -151.44643908 772.42803492 -143.43504333 758.62641239 C-142.91168396 757.67895145 -142.38832458 756.73149052 -141.84910583 755.75531864 C-141.38246521 755.05277958 -140.91582458 754.35024052 -140.43504333 753.62641239 C-139.77504333 753.62641239 -139.11504333 753.62641239 -138.43504333 753.62641239 C-138.12566833 753.00766239 -137.81629333 752.38891239 -137.49754333 751.75141239 C-136.81004333 750.37641239 -136.12254333 749.00141239 -135.43504333 747.62641239 C-134.77504333 747.62641239 -134.11504333 747.62641239 -133.43504333 747.62641239 C-133.12566833 746.82203739 -133.12566833 746.82203739 -132.81004333 746.00141239 C-130.90253907 742.70663231 -128.38684949 740.03277611 -125.43504333 737.62641239 C-124.77504333 737.62641239 -124.11504333 737.62641239 -123.43504333 737.62641239 C-123.43504333 736.96641239 -123.43504333 736.30641239 -123.43504333 735.62641239 C-121.69956164 734.18114503 -119.8952837 732.81769019 -118.06004333 731.50141239 C-117.06230896 730.77695927 -116.06457458 730.05250614 -115.03660583 729.30609989 C-112.43504333 727.62641239 -112.43504333 727.62641239 -110.43504333 727.62641239 C-110.43656222 726.49029904 -110.4380811 725.35418568 -110.43964601 724.18364465 C-110.50630756 674.12467205 -110.56802065 624.06569649 -110.60441589 574.00669193 C-110.60496812 573.24908148 -110.60552035 572.49147102 -110.60608931 571.71090267 C-110.61806034 555.24685 -110.62914115 538.78279684 -110.63930465 522.31874295 C-110.64429409 514.24502979 -110.6494803 506.17131677 -110.6547699 498.0976038 C-110.65529293 497.29416298 -110.65581597 496.49072217 -110.65635486 495.66293466 C-110.67340688 469.61088131 -110.70345705 443.55886262 -110.74023222 417.50683027 C-110.77794807 390.73984927 -110.80258174 363.97288745 -110.8107033 337.20588032 C-110.81185595 333.42711867 -110.8131585 329.64835709 -110.81455231 325.86959553 C-110.81495685 324.7539999 -110.81495685 324.7539999 -110.81536956 323.61586698 C-110.82010044 311.63333474 -110.83866345 299.65086175 -110.86237147 287.66835369 C-110.88589926 275.6282479 -110.89492058 263.58820096 -110.88904884 251.54807298 C-110.88647888 245.02185264 -110.89050523 238.4958065 -110.91186523 231.96961689 C-110.93126242 225.99974566 -110.93235772 220.03016657 -110.91863891 214.06028219 C-110.91694218 211.8959847 -110.9220739 209.73166934 -110.93457606 207.5674073 C-110.95054407 204.63352544 -110.9420291 201.70070901 -110.92723465 198.76684475 C-110.9377427 197.91946898 -110.94825076 197.07209322 -110.95907724 196.1990394 C-110.89771052 190.84235694 -109.87653771 187.94304526 -106.43504333 183.62641239 C-105.78985678 182.40970173 -105.17462886 181.17587438 -104.61082458 179.91938114 C-104.1584845 178.92962284 -104.1584845 178.92962284 -103.69700623 177.91986942 C-103.38368347 177.2249036 -103.07036072 176.52993778 -102.74754333 175.81391239 C-100.00661846 169.85549266 -97.11382387 164.02212645 -93.99754333 158.25141239 C-90.78513551 152.29143236 -87.79469868 146.26331367 -84.93504333 140.12641239 C-81.02597225 131.74127959 -76.77103467 123.58142122 -72.3969574 115.43158817 C-69.7424494 110.45000641 -67.20533125 105.43910081 -64.99754333 100.24359989 C-63.54545522 96.88201591 -61.97287429 93.6378103 -60.31004333 90.37641239 C-57.43185781 84.69555771 -54.69641714 78.95684415 -51.99754333 73.18891239 C-48.99675551 66.79146115 -45.83588457 60.52775577 -42.45262146 54.325387 C-39.78138654 49.38399755 -37.37106951 44.34156347 -34.99754333 39.25141239 C-31.07477389 30.8494885 -26.90554671 22.59970688 -22.44041443 14.47211552 C-21.77296167 13.24677728 -21.12452986 12.01087553 -20.49607849 10.76508427 C-15.40167895 1.03297016 -10.3159146 -0.11421355 0 0 Z M3.80231792 34.05069858 C3.3939887 34.90068414 2.98565949 35.7506697 2.56495667 36.62641239 C2.22706116 37.22921024 1.88916565 37.83200809 1.54103088 38.45307255 C0.50243879 40.38330173 -0.53194831 42.31556717 -1.56004333 44.25141239 C-1.94893738 44.98343876 -2.33783142 45.71546513 -2.73851013 46.46967411 C-6.13426283 52.92848981 -9.28125023 59.49272214 -12.33982849 66.11713505 C-13.98618869 69.6642582 -15.67083684 73.08391905 -17.69676208 76.43109989 C-19.75362581 79.60577598 -19.75362581 79.60577598 -19.43504333 83.62641239 C-20.09504333 83.62641239 -20.75504333 83.62641239 -21.43504333 83.62641239 C-21.76117615 84.36246708 -22.08730896 85.09852177 -22.42332458 85.85688114 C-22.86031677 86.83270145 -23.29730896 87.80852177 -23.74754333 88.81391239 C-24.17680115 89.77684208 -24.60605896 90.73977177 -25.04832458 91.73188114 C-26.36482286 94.47983951 -27.85468436 97.02449541 -29.43504333 99.62641239 C-30.13143863 101.25133475 -30.82590598 102.87714432 -31.50535583 104.50922489 C-33.61282953 109.30859776 -36.07020966 113.95024807 -38.43504333 118.62641239 C-42.69684505 127.05409103 -46.86960858 135.50977898 -50.87254333 144.06391239 C-54.18476251 151.13703797 -57.69604831 158.07220552 -61.42893982 164.93280888 C-65.75810119 172.395895 -65.75810119 172.395895 -67.43504333 180.62641239 C-65.8355761 180.63854267 -65.8355761 180.63854267 -64.20379639 180.65091801 C-54.15412094 180.7284074 -44.10458042 180.81615388 -34.05508137 180.91393948 C-28.88854977 180.96388229 -23.72203843 181.01021262 -18.55540466 181.04828739 C-13.56919188 181.08516549 -8.58314931 181.13153252 -3.59708214 181.1844759 C-1.6949328 181.20300639 0.20725301 181.21811932 2.10945702 181.22975636 C4.77408142 181.24664172 7.43831714 181.27568244 10.10279846 181.30756474 C10.8889856 181.30972492 11.67517273 181.31188511 12.48518372 181.31411076 C16.6077666 181.37711278 19.85410297 181.7813127 23.56495667 183.62641239 C23.56495667 184.28641239 23.56495667 184.94641239 23.56495667 185.62641239 C24.22495667 185.62641239 24.88495667 185.62641239 25.56495667 185.62641239 C28.49436391 192.76684255 28.49436391 199.48598224 25.56495667 206.62641239 C24.90495667 206.62641239 24.24495667 206.62641239 23.56495667 206.62641239 C23.56495667 207.28641239 23.56495667 207.94641239 23.56495667 208.62641239 C-8.32626169 221.38289974 -45.08893805 211.27594193 -79.43504333 211.62641239 C-79.43504333 377.28641239 -79.43504333 542.94641239 -79.43504333 713.62641239 C-76.04665865 714.75587395 -74.84501838 714.3670447 -71.43504333 713.62641239 C-69.58032465 713.50663901 -67.722725 713.42705964 -65.86473083 713.38031864 C-64.80254333 713.34744755 -63.74035583 713.31457645 -62.64598083 713.28070927 C-60.44554726 713.22015869 -58.24502333 713.16279647 -56.04441833 713.10883427 C-35.27857523 712.44582843 -18.18950189 705.07499733 -3.62644958 690.05609989 C0.70838293 685.90004214 0.70838293 685.90004214 2.56495667 680.62641239 C3.22495667 680.62641239 3.88495667 680.62641239 4.56495667 680.62641239 C6.01402 679.00840365 6.01402 679.00840365 7.43995667 676.93891239 C9.22044138 674.47329017 11.0006396 672.09900673 12.93995667 669.75141239 C14.76744003 667.80747925 14.76744003 667.80747925 14.56495667 665.62641239 C15.22495667 665.62641239 15.88495667 665.62641239 16.56495667 665.62641239 C18.15321888 663.91143467 18.15321888 663.91143467 19.68995667 661.75141239 C20.22878479 661.03211552 20.76761292 660.31281864 21.32276917 659.57172489 C22.74435298 657.73015233 22.74435298 657.73015233 22.56495667 655.62641239 C23.22495667 655.62641239 23.88495667 655.62641239 24.56495667 655.62641239 C26.14468564 653.74288939 27.61151668 651.85425797 29.06495667 649.87641239 C32.5019545 645.29898475 36.00771414 640.82226301 39.68995667 636.43891239 C42.87653212 632.64224891 46.05864451 628.84388523 49.18995667 625.00141239 C49.84222229 624.20477177 50.49448792 623.40813114 51.16651917 622.58734989 C52.75849812 620.75643961 52.75849812 620.75643961 52.56495667 618.62641239 C53.22495667 618.62641239 53.88495667 618.62641239 54.56495667 618.62641239 C56.96315971 615.98956492 56.96315971 615.98956492 57.56495667 612.62641239 C58.22495667 612.62641239 58.88495667 612.62641239 59.56495667 612.62641239 C59.56495667 611.96641239 59.56495667 611.30641239 59.56495667 610.62641239 C60.22495667 610.62641239 60.88495667 610.62641239 61.56495667 610.62641239 C63.23162333 609.29307906 63.23162333 609.29307906 64.56495667 607.62641239 C64.56495667 606.96641239 64.56495667 606.30641239 64.56495667 605.62641239 C65.22495667 605.62641239 65.88495667 605.62641239 66.56495667 605.62641239 C66.56495667 604.96641239 66.56495667 604.30641239 66.56495667 603.62641239 C67.15405823 603.3441077 67.74315979 603.06180302 68.35011292 602.77094364 C70.36010635 601.73226978 72.1381216 600.58863592 74.00245667 599.31391239 C89.39471879 589.6436808 107.9008635 587.4510097 125.56495667 590.81000614 C134.61454531 593.27271972 142.59335708 598.01345303 150.32276917 603.20844364 C152.59093726 604.76829242 152.59093726 604.76829242 155.56495667 605.62641239 C155.56495667 606.28641239 155.56495667 606.94641239 155.56495667 607.62641239 C156.89829 609.29307906 156.89829 609.29307906 158.56495667 610.62641239 C159.22495667 610.62641239 159.88495667 610.62641239 160.56495667 610.62641239 C160.56495667 611.28641239 160.56495667 611.94641239 160.56495667 612.62641239 C161.22495667 612.62641239 161.88495667 612.62641239 162.56495667 612.62641239 C162.79183167 613.14203739 163.01870667 613.65766239 163.25245667 614.18891239 C164.59014331 616.82133316 164.59014331 616.82133316 166.87745667 619.68891239 C174.22770762 629.8361615 177.92389961 642.22596497 178.56495667 654.62641239 C178.60620667 655.33152958 178.64745667 656.03664677 178.68995667 656.76313114 C179.33881448 678.70263588 168.98430441 696.39099328 158.99415588 715.05634403 C155.760051 721.14989625 152.7987123 727.35547784 149.87208557 733.60126591 C144.97732068 744.04293291 139.82499758 754.3372079 134.37745667 764.50141239 C130.94504935 770.89383915 130.94504935 770.89383915 127.56495667 777.31391239 C127.17308167 778.06027958 126.78120667 778.80664677 126.37745667 779.57563114 C125.31939967 781.87856278 125.31939967 781.87856278 125.56495667 785.62641239 C153.94495667 785.62641239 182.32495667 785.62641239 211.56495667 785.62641239 C211.56882385 765.73359989 211.56882385 765.73359989 211.57276917 745.43891239 C211.58771397 737.04435649 211.60416811 728.64984867 211.62745667 720.25531864 C211.66415133 706.9269866 211.69462982 693.59884521 211.68507385 680.27045536 C211.67814275 670.56358662 211.69220183 660.8570132 211.73139274 651.15021706 C211.75141045 646.01116487 211.7609667 640.87257636 211.7453804 635.73349857 C211.73103404 630.89384629 211.74480656 626.0550793 211.77990913 621.21554089 C211.78786107 619.44187909 211.78564391 617.66813719 211.7723484 615.89450741 C211.66137824 599.71979863 211.66137824 599.71979863 216.99276543 593.89392948 C221.37588292 590.36021412 226.12693841 590.14939325 231.56495667 590.62641239 C238.01005972 592.69502032 241.5019563 596.18788212 245.93995667 601.18891239 C246.5677301 601.87404911 247.19550354 602.55918583 247.84230042 603.26508427 C252.38223983 608.26097872 252.38223983 608.26097872 253.56495667 610.62641239 C254.22495667 610.62641239 254.88495667 610.62641239 255.56495667 610.62641239 C255.56495667 611.28641239 255.56495667 611.94641239 255.56495667 612.62641239 C256.89829 614.29307906 256.89829 614.29307906 258.56495667 615.62641239 C259.22495667 615.62641239 259.88495667 615.62641239 260.56495667 615.62641239 C260.56495667 616.28641239 260.56495667 616.94641239 260.56495667 617.62641239 C261.88495667 618.28641239 263.20495667 618.94641239 264.56495667 619.62641239 C267.41961427 616.82110393 270.26772897 614.00933543 273.10987854 611.1913538 C274.07814205 610.23316283 275.04819092 609.27677257 276.02003479 608.32221317 C277.41466636 606.95177419 278.80242187 605.57434872 280.18995667 604.19672489 C281.02784729 603.3693079 281.86573792 602.54189091 282.72901917 601.68940067 C284.78655756 599.83767733 284.78655756 599.83767733 284.56495667 597.62641239 C285.22495667 597.62641239 285.88495667 597.62641239 286.56495667 597.62641239 C286.56495667 596.96641239 286.56495667 596.30641239 286.56495667 595.62641239 C287.16308167 595.33766239 287.76120667 595.04891239 288.37745667 594.75141239 C290.75823458 593.57899214 290.75823458 593.57899214 293.56495667 591.62641239 C299.50958678 590.61373808 305.21016514 590.20914772 310.49855042 593.39203739 C313.05208366 595.67739135 315.32704031 598.03274593 317.56495667 600.62641239 C318.14890198 601.27996708 318.73284729 601.93352177 319.33448792 602.60688114 C320.32412685 603.74183414 321.29957529 604.88941208 322.25636292 606.05219364 C324.22563876 608.4212031 326.29302954 610.54381253 328.56495667 612.62641239 C329.22495667 612.62641239 329.88495667 612.62641239 330.56495667 612.62641239 C330.89495667 613.61641239 331.22495667 614.60641239 331.56495667 615.62641239 C332.22495667 615.62641239 332.88495667 615.62641239 333.56495667 615.62641239 C333.56495667 616.28641239 333.56495667 616.94641239 333.56495667 617.62641239 C334.22495667 617.62641239 334.88495667 617.62641239 335.56495667 617.62641239 C335.89495667 618.28641239 336.22495667 618.94641239 336.56495667 619.62641239 C342.86368615 614.31295903 349.07401787 608.78121468 354.56495667 602.62641239 C354.56495667 601.96641239 354.56495667 601.30641239 354.56495667 600.62641239 C355.20433167 600.35828739 355.84370667 600.09016239 356.50245667 599.81391239 C358.89627353 598.73973487 358.89627353 598.73973487 359.56495667 595.62641239 C361.43995667 594.56391239 361.43995667 594.56391239 363.56495667 593.62641239 C364.55495667 592.96641239 365.54495667 592.30641239 366.56495667 591.62641239 C372.16747603 590.67201703 377.97215559 590.20299283 383.07667542 593.00531864 C385.16686287 594.86934271 387.09583851 596.80965391 388.97413635 598.88617802 C391.73748946 601.90907257 394.60817823 604.82649436 397.47999573 607.7460413 C399.10920826 609.40532861 400.72348077 611.07942936 402.3217926 612.76850224 C403.06977112 613.53887821 403.81774963 614.30925419 404.58839417 615.10297489 C405.59265442 616.15605839 405.59265442 616.15605839 406.61720276 617.2304163 C408.4629111 618.86706979 408.4629111 618.86706979 410.74708557 618.47162724 C413.16368093 617.34803697 413.45877451 615.98626765 414.56495667 613.62641239 C415.55495667 613.29641239 416.54495667 612.96641239 417.56495667 612.62641239 C417.56495667 611.96641239 417.56495667 611.30641239 417.56495667 610.62641239 C418.22495667 610.62641239 418.88495667 610.62641239 419.56495667 610.62641239 C420.99728447 609.20993569 420.99728447 609.20993569 422.50245667 607.31391239 C437.12503347 590.32010691 437.12503347 590.32010691 444.43605042 589.50922489 C449.91303349 589.8107102 453.27749482 591.33242972 457.14512157 595.2196455 C460.00656692 598.73651147 460.27069124 602.02418949 460.20419312 606.44718266 C460.21254684 607.21408924 460.22090057 607.98099583 460.22950745 608.77114201 C460.25143766 611.33908562 460.23779435 613.90559585 460.22438049 616.47358036 C460.23287438 618.34662347 460.24355524 620.21965773 460.25624371 622.09267712 C460.28416443 627.10429697 460.28218996 632.11548628 460.27399445 637.12716007 C460.27083895 641.83153033 460.29468171 646.53561331 460.31629944 651.23993778 C460.36379072 664.99369577 460.36798291 678.74757568 460.37745667 692.50141239 C460.47026917 738.59828739 460.47026917 738.59828739 460.56495667 785.62641239 C553.29495667 785.62641239 646.02495667 785.62641239 741.56495667 785.62641239 C741.56495667 596.20641239 741.56495667 406.78641239 741.56495667 211.62641239 C651.47495667 211.62641239 561.38495667 211.62641239 468.56495667 211.62641239 C468.23495667 253.53641239 467.90495667 295.44641239 467.56495667 338.62641239 C466.90495667 339.61641239 466.24495667 340.60641239 465.56495667 341.62641239 C465.56495667 342.61641239 465.56495667 343.60641239 465.56495667 344.62641239 C464.90495667 344.62641239 464.24495667 344.62641239 463.56495667 344.62641239 C463.56495667 345.28641239 463.56495667 345.94641239 463.56495667 346.62641239 C458.71863782 349.153771 454.08356461 348.90595515 448.75865173 348.88037968 C447.76419308 348.88349966 446.76973443 348.88661964 445.74514067 348.88983417 C442.40946584 348.89781806 439.07397273 348.89148895 435.73829651 348.88520145 C433.34836724 348.8879111 430.95843881 348.89147189 428.56851196 348.89582157 C422.74949167 348.90400174 416.93052923 348.90279466 411.11150716 348.89699629 C406.38338659 348.89247988 401.65528047 348.8918668 396.92715836 348.89404392 C396.25428919 348.89435039 395.58142003 348.89465685 394.88816089 348.89497261 C393.52127475 348.89561205 392.15438861 348.89626048 390.78750248 348.89691779 C377.97183269 348.90262027 365.15619152 348.89606403 352.34052642 348.88531706 C341.33947583 348.87637754 330.33846743 348.87793704 319.3374176 348.88715458 C306.56456419 348.89785165 293.79173584 348.90207524 281.01887858 348.89593005 C279.65762687 348.89529294 278.29637516 348.8946642 276.93512344 348.89404392 C276.26534172 348.89373537 275.59556 348.89342682 274.90548187 348.89310892 C270.18095839 348.89138059 265.45645079 348.89429996 260.73192978 348.89900303 C254.37737815 348.90476487 248.02290652 348.90080092 241.66836357 348.88921452 C239.33141272 348.88656193 236.99445517 348.88734316 234.65750694 348.89173985 C231.47734405 348.89717298 228.2974405 348.89038836 225.11729431 348.88037968 C224.183943 348.88484112 223.25059169 348.88930256 222.288957 348.8938992 C221.43960222 348.88868371 220.59024745 348.88346821 219.71515465 348.87809467 C218.98082785 348.87776997 218.24650105 348.87744526 217.48992193 348.87711072 C215.56495667 348.62641239 215.56495667 348.62641239 212.56495667 346.62641239 C211.57495667 346.62641239 210.58495667 346.62641239 209.56495667 346.62641239 C209.27620667 346.02828739 208.98745667 345.43016239 208.68995667 344.81391239 C207.51753641 342.43313447 207.51753641 342.43313447 205.56495667 339.62641239 C205.30324364 337.25824547 205.30324364 337.25824547 205.28648376 334.40627384 C205.26973854 332.78457027 205.26973854 332.78457027 205.25265503 331.13010502 C205.25049484 329.94399632 205.24833466 328.75788761 205.24610901 327.53583622 C205.23606339 326.28694111 205.22601776 325.038046 205.21566772 323.75130558 C205.19004902 320.32593634 205.17321022 316.90073324 205.1602397 313.47530675 C205.14462134 309.8958003 205.11782702 306.31637813 205.09220886 302.7369318 C205.04539807 295.95844723 205.00866514 289.17994684 204.97553599 282.4013831 C204.93733081 274.68435878 204.88791648 266.96741904 204.83755183 259.25046599 C204.73419779 243.37584257 204.64494873 227.50117175 204.56495667 211.62641239 C202.73998405 211.61428211 202.73998405 211.61428211 200.87814331 211.60190678 C189.41573015 211.52444229 177.95343564 211.43670207 166.49117756 211.33888531 C160.59823272 211.28892672 154.70530577 211.24259647 148.81227112 211.20453739 C143.12581464 211.16767931 137.43950798 211.12131762 131.75317955 211.06834888 C129.58308221 211.04980778 127.41295277 211.03469877 125.24280739 211.02306843 C122.20460779 211.00620137 119.16675109 210.97716469 116.12867737 210.94526005 C115.23028137 210.94309986 114.33188538 210.94093967 113.40626526 210.93871403 C109.01979435 210.87981971 105.55506227 210.68216478 101.56495667 208.62641239 C101.56495667 207.96641239 101.56495667 207.30641239 101.56495667 206.62641239 C100.90495667 206.62641239 100.24495667 206.62641239 99.56495667 206.62641239 C96.63554942 199.48598224 96.63554942 192.76684255 99.56495667 185.62641239 C100.22495667 185.62641239 100.88495667 185.62641239 101.56495667 185.62641239 C101.56495667 184.96641239 101.56495667 184.30641239 101.56495667 183.62641239 C105.45102586 181.02757934 109.5612508 181.3371939 114.05635071 181.34793949 C114.92139796 181.34214709 115.7864452 181.33635469 116.677706 181.33038676 C119.5812412 181.3133585 122.48461772 181.31050782 125.38819885 181.30756474 C127.46758414 181.29826851 129.54696568 181.2881003 131.62634277 181.27712345 C137.2767442 181.24977492 142.92712063 181.23465964 148.57757092 181.22169542 C154.48064231 181.20608612 160.3836625 181.1792889 166.28669739 181.15366459 C177.46736583 181.1068378 188.64804386 181.07011256 199.82876039 181.03699172 C214.93554814 180.99165902 230.04227262 180.93077244 245.1490078 180.87074375 C268.9542924 180.77656137 292.75959491 180.70320388 316.56495667 180.62641239 C316.56495667 131.45641239 316.56495667 82.28641239 316.56495667 31.62641239 C261.36282729 31.48079231 261.36282729 31.48079231 206.16065979 31.38227177 C198.72584478 31.37248189 191.2910303 31.36237933 183.85621643 31.35175419 C182.9243389 31.35043544 181.99246136 31.3491167 181.03234512 31.347758 C165.97315727 31.32599083 150.91406454 31.28656049 135.85493317 31.24064841 C120.40878511 31.19394795 104.96268697 31.16613059 89.51647121 31.15596992 C79.97953832 31.14909742 70.44287415 31.1273647 60.90602396 31.08683006 C54.37287113 31.06047074 47.83985792 31.05239587 41.30665573 31.0589055 C37.53302802 31.0621191 33.75987097 31.05707419 29.98632622 31.03038502 C25.9014003 31.00170337 21.81748592 31.01142587 17.73248291 31.02513981 C15.93046332 31.0032935 15.93046332 31.0032935 14.09203929 30.98100585 C13.00273012 30.99096109 11.91342095 31.00091633 10.79110241 31.01117325 C9.84749739 31.00927465 8.90389237 31.00737604 7.93169326 31.00541991 C5.32157456 31.42335604 5.32157456 31.42335604 3.80231792 34.05069858 Z M348.56495667 31.62641239 C348.56495667 80.79641239 348.56495667 129.96641239 348.56495667 180.62641239 C474.95495667 180.62641239 601.34495667 180.62641239 731.56495667 180.62641239 C730.81398096 177.62250957 730.1048344 175.41190625 728.81495667 172.67719364 C728.45869202 171.92083622 728.10242737 171.1644788 727.73536682 170.38520145 C727.34913147 169.57792606 726.96289612 168.77065067 726.56495667 167.93891239 C726.1619635 167.09167606 725.75897034 166.24443974 725.34376526 165.37152958 C722.75113723 159.96845646 720.03338912 154.65112061 717.18995667 149.37641239 C709.68197283 135.44659971 703.07070634 121.04597678 696.56495667 106.62641239 C695.90495667 106.62641239 695.24495667 106.62641239 694.56495667 106.62641239 C694.44120667 105.90453739 694.31745667 105.18266239 694.18995667 104.43891239 C693.57446357 101.66919345 692.68051292 99.22937699 691.56495667 96.62641239 C690.90495667 96.62641239 690.24495667 96.62641239 689.56495667 96.62641239 C689.48245667 95.98188114 689.39995667 95.33734989 689.31495667 94.67328739 C688.27793991 90.46040683 686.44843976 86.77229812 684.56495667 82.87641239 C684.1634137 82.03658817 683.76187073 81.19676395 683.34815979 80.33149052 C680.37084291 74.15855115 677.20938386 68.10015957 673.95509338 62.06977177 C670.59792126 55.80461627 667.5539856 49.40700899 664.57081604 42.95649052 C664.04584534 41.82630497 664.04584534 41.82630497 663.51026917 40.67328739 C663.20621155 40.01167606 662.90215393 39.35006474 662.58888245 38.66840458 C662.25098694 37.99454716 661.91309143 37.32068974 661.56495667 36.62641239 C660.95197968 35.34477222 660.95197968 35.34477222 660.32661933 34.03724033 C658.80623193 31.42460033 658.80623193 31.42460033 656.2046321 31.00541991 C655.26406485 31.00731851 654.32349759 31.00921711 653.35442829 31.01117325 C652.26860252 31.00121801 651.18277674 30.99126276 650.06404716 30.98100585 C648.86659171 30.99557005 647.66913626 31.01013426 646.43539429 31.02513981 C645.16692978 31.02086768 643.89846527 31.01659556 642.59156245 31.01219398 C639.06356875 31.00098504 635.53633039 31.02105167 632.00843298 31.04608428 C628.20681405 31.06762964 624.40523945 31.06037308 620.60357666 31.05657291 C614.01462482 31.05394815 607.42592009 31.06966666 600.83703041 31.09776211 C591.31058633 31.13835708 581.78426202 31.1514152 572.25774082 31.15770207 C556.80254251 31.16865156 541.34747598 31.20194347 525.89234924 31.24921513 C510.87705638 31.2950938 495.86179945 31.33043666 480.84645081 31.35175419 C479.91182886 31.35309418 478.97720692 31.35443416 478.01426309 31.35581475 C470.70515997 31.36621156 463.39605607 31.37599629 456.08695185 31.38558757 C420.24616585 31.43277604 384.40570962 31.53336249 348.56495667 31.62641239 Z M235.56495667 211.62641239 C235.56495667 246.60641239 235.56495667 281.58641239 235.56495667 317.62641239 C301.89495667 317.62641239 368.22495667 317.62641239 436.56495667 317.62641239 C436.56495667 282.64641239 436.56495667 247.66641239 436.56495667 211.62641239 C420.00308167 211.60578739 403.44120667 211.58516239 386.37745667 211.56391239 C381.15006653 211.55480839 375.92267639 211.54570438 370.53688049 211.5363245 C365.84671816 211.53297985 365.84671816 211.53297985 361.15655518 211.53096867 C359.06927273 211.52943417 356.98199117 211.52591937 354.89471436 211.52083683 C351.73114992 211.51351932 348.56763962 211.51250634 345.40406799 211.512887 C344.0117469 211.50748984 344.0117469 211.50748984 342.5912981 211.50198364 C338.40692256 211.50872562 334.67143757 211.77362534 330.56495667 212.62641239 C329.57495667 212.29641239 328.58495667 211.96641239 327.56495667 211.62641239 C324.62819699 211.53476475 321.71569289 211.50047206 318.77906799 211.512887 C317.86678531 211.51276647 316.95450262 211.51264593 316.014575 211.51252174 C313.05868792 211.51326871 310.10286373 211.52088715 307.14698792 211.52875614 C305.32321706 211.53022623 303.49944579 211.53124653 301.67567444 211.5318079 C294.90959542 211.53705303 288.14352543 211.55101421 281.37745667 211.56391239 C266.25933167 211.58453739 251.14120667 211.60516239 235.56495667 211.62641239 Z M78.56105042 638.14594364 C77.3788795 639.60557848 77.3788795 639.60557848 77.56495667 641.62641239 C76.90495667 641.62641239 76.24495667 641.62641239 75.56495667 641.62641239 C74.11589333 643.24442113 74.11589333 643.24442113 72.68995667 645.31391239 C70.90947195 647.77953461 69.12927373 650.15381805 67.18995667 652.50141239 C65.3624733 654.44534553 65.3624733 654.44534553 65.56495667 656.62641239 C64.90495667 656.62641239 64.24495667 656.62641239 63.56495667 656.62641239 C61.71648356 658.79933569 59.97282177 660.98043907 58.25245667 663.25141239 C57.29890544 664.49427236 56.34448429 665.73646541 55.38917542 666.97797489 C54.92301819 667.58802372 54.45686096 668.19807255 53.97657776 668.8266077 C52.59953047 670.58233109 51.16644413 672.27275315 49.70948792 673.96234989 C47.35593662 676.31607316 47.35593662 676.31607316 47.56495667 678.62641239 C46.90495667 678.62641239 46.24495667 678.62641239 45.56495667 678.62641239 C43.16675362 681.26325986 43.16675362 681.26325986 42.56495667 684.62641239 C41.90495667 684.62641239 41.24495667 684.62641239 40.56495667 684.62641239 C39.21158544 686.13280314 39.21158544 686.13280314 37.86573792 688.10688114 C35.71079711 691.07901008 33.50835287 693.97136598 31.17042542 696.80219364 C30.60774963 697.48475224 30.04507385 698.16731083 29.46534729 698.87055302 C28.3058789 700.27064085 27.144359 701.66903186 25.98097229 703.06586552 C25.42474182 703.7419788 24.86851135 704.41809208 24.29542542 705.11469364 C23.7942218 705.71837772 23.29301819 706.32206181 22.77662659 706.94403934 C21.36621242 708.72626937 21.36621242 708.72626937 20.56495667 711.62641239 C19.90495667 711.62641239 19.24495667 711.62641239 18.56495667 711.62641239 C16.89829 712.95974572 16.89829 712.95974572 15.56495667 714.62641239 C15.56495667 715.28641239 15.56495667 715.94641239 15.56495667 716.62641239 C14.90495667 716.62641239 14.24495667 716.62641239 13.56495667 716.62641239 C13.56495667 717.28641239 13.56495667 717.94641239 13.56495667 718.62641239 C12.70257385 719.02086552 12.70257385 719.02086552 11.82276917 719.42328739 C9.4344065 720.69597892 7.53192986 722.16269265 5.43995667 723.87641239 C-3.19973139 730.63973384 -11.91610956 734.78887031 -22.18894958 738.42719364 C-25.24831309 739.3002661 -25.24831309 739.3002661 -26.43504333 740.62641239 C-36.97755592 743.41351342 -47.43410107 744.04380047 -58.30027771 744.15961552 C-73.76188543 744.46588378 -88.00124417 749.45147188 -100.43504333 758.62641239 C-101.17754333 759.13945927 -101.92004333 759.65250614 -102.68504333 760.18109989 C-103.55129333 760.89652958 -103.55129333 760.89652958 -104.43504333 761.62641239 C-104.43504333 762.28641239 -104.43504333 762.94641239 -104.43504333 763.62641239 C-105.42504333 763.95641239 -106.41504333 764.28641239 -107.43504333 764.62641239 C-107.43504333 765.28641239 -107.43504333 765.94641239 -107.43504333 766.62641239 C-108.09504333 766.62641239 -108.75504333 766.62641239 -109.43504333 766.62641239 C-119.22054505 778.43310086 -124.2699254 790.78786759 -125.99754333 805.87641239 C-126.22184717 807.79901665 -126.45211958 809.72093591 -126.68894958 811.64203739 C-126.78506531 812.48025028 -126.88118103 813.31846317 -126.98020935 814.18207645 C-127.47667302 816.85013562 -128.35341423 819.14351269 -129.43504333 821.62641239 C-130.09504333 821.62641239 -130.75504333 821.62641239 -131.43504333 821.62641239 C-132.54533489 822.77140056 -133.65453106 823.91746451 -134.75926208 825.06781864 C-145.833362 835.36750597 -160.46131156 842.30450178 -174.43504333 847.62641239 C-173.76401774 850.45750134 -172.94085584 853.18717694 -171.99754333 855.93891239 C-170.69171094 859.80594261 -169.55642541 863.70157512 -168.43504333 867.62641239 C-167.94148565 869.12854448 -167.44111206 870.62844896 -166.93504333 872.12641239 C-165.64989484 875.93045194 -164.53821483 879.76531215 -163.43504333 883.62641239 C-162.94148565 885.12854448 -162.44111206 886.62844896 -161.93504333 888.12641239 C-160.64989484 891.93045194 -159.53821483 895.76531215 -158.43504333 899.62641239 C-157.94148565 901.12854448 -157.44111206 902.62844896 -156.93504333 904.12641239 C-155.64989484 907.93045194 -154.53821483 911.76531215 -153.43504333 915.62641239 C-152.71015151 917.79714823 -151.97067932 919.9618463 -151.21629333 922.12250614 C-150.37043451 924.83348368 -149.7060868 927.5738017 -149.02879333 930.33075809 C-147.88310688 934.76040026 -146.52369869 939.12700252 -145.18504333 943.50141239 C-144.87784363 944.5093787 -144.57064392 945.51734501 -144.25413513 946.55585575 C-142.10977372 953.54560142 -139.84256389 960.48556709 -137.49461365 967.40912724 C-135.64929415 972.88440073 -134.05152858 978.40654746 -132.50535583 983.97406864 C-130.99186291 989.13872516 -129.27520369 994.22967245 -127.54051208 999.32367802 C-126.04425625 1003.7293202 -124.67585303 1008.14177162 -123.43504333 1012.62641239 C-122.44504333 1012.62641239 -121.45504333 1012.62641239 -120.43504333 1012.62641239 C-120.43504333 1011.96641239 -120.43504333 1011.30641239 -120.43504333 1010.62641239 C-119.88203552 1010.52715458 -119.32902771 1010.42789677 -118.75926208 1010.32563114 C-115.88150012 1009.45988427 -113.76257927 1008.08294021 -111.24754333 1006.43891239 C-110.2794574 1005.80984989 -109.31137146 1005.18078739 -108.31394958 1004.53266239 C-105.7642946 1002.84442409 -103.22265944 1001.14516542 -100.68504333 999.43891239 C-95.78547851 996.15208447 -90.75990693 993.18234692 -85.43504333 990.62641239 C-85.43504333 989.96641239 -85.43504333 989.30641239 -85.43504333 988.62641239 C-84.72726746 988.36755253 -84.01949158 988.10869267 -83.29026794 987.84198856 C-80.22255596 986.53594855 -77.56985223 984.95766688 -74.75144958 983.17719364 C-73.6650116 982.49672977 -72.57857361 981.81626591 -71.45921326 981.11518192 C-70.89302277 980.75893742 -70.32683228 980.40269291 -69.7434845 980.03565311 C-44.30472554 964.05589189 -22.58110935 955.30098963 7.72120667 961.82953739 C12.97021183 962.91774578 18.23456408 963.55237971 23.55323792 964.19672489 C26.56495667 964.62641239 26.56495667 964.62641239 29.56495667 965.62641239 C31.20891375 965.75688518 32.85540548 965.85620537 34.50245667 965.93891239 C40.31546311 966.36976706 45.87411474 967.42691639 51.56495667 968.62641239 C56.90501622 969.74967816 62.10369162 970.81611324 67.56495667 971.12641239 C73.91959536 971.48747141 80.0084237 972.87849443 86.22120667 974.18500614 C90.68299341 975.10558564 95.00610508 975.86738673 99.56495667 976.12641239 C105.90690057 976.48675011 111.98399541 977.87162975 118.18385315 979.17841434 C123.90434646 980.36063148 129.50592713 981.15716414 135.35011292 981.45063114 C137.56495667 981.62641239 137.56495667 981.62641239 140.56495667 982.62641239 C158.70959803 985.06375228 177.90200809 984.3210936 195.56495667 979.62641239 C196.6980426 979.34926395 197.83112854 979.07211552 198.99855042 978.78656864 C207.83863593 976.49031455 215.54591556 972.95669459 223.56495667 968.62641239 C224.55753479 968.1069202 225.55011292 967.58742802 226.57276917 967.05219364 C231.75357688 964.30304637 236.65759799 961.31735338 241.49855042 958.00922489 C245.66599325 955.22042571 250.04418392 952.79638331 254.56495667 950.62641239 C254.56495667 949.96641239 254.56495667 949.30641239 254.56495667 948.62641239 C255.2970636 948.35313114 256.02917053 948.07984989 256.78346252 947.79828739 C259.42550954 946.68516305 261.66321213 945.42619413 264.06886292 943.87641239 C265.30346252 943.08750614 265.30346252 943.08750614 266.56300354 942.28266239 C267.40927307 941.73609989 268.2555426 941.18953739 269.12745667 940.62641239 C270.81516033 939.54136864 272.50392483 938.45797277 274.19386292 937.37641239 C274.93708801 936.89688114 275.68031311 936.41734989 276.44606018 935.92328739 C278.44156466 934.70193472 280.45649413 933.63756819 282.56495667 932.62641239 C282.56495667 931.96641239 282.56495667 931.30641239 282.56495667 930.62641239 C283.39446838 930.47752567 283.39446838 930.47752567 284.24073792 930.32563114 C287.11849988 929.45988427 289.23742073 928.08294021 291.75245667 926.43891239 C292.71538635 925.81371708 293.67831604 925.18852177 294.67042542 924.54438114 C298.02832671 922.31937502 301.37056401 920.07255734 304.68995667 917.79047489 C306.56495667 916.62641239 306.56495667 916.62641239 309.56495667 915.62641239 C309.56495667 914.96641239 309.56495667 914.30641239 309.56495667 913.62641239 C310.2970636 913.35313114 311.02917053 913.07984989 311.78346252 912.79828739 C314.42550954 911.68516305 316.66321213 910.42619413 319.06886292 908.87641239 C320.30346252 908.08750614 320.30346252 908.08750614 321.56300354 907.28266239 C322.40927307 906.73609989 323.2555426 906.18953739 324.12745667 905.62641239 C325.81516033 904.54136864 327.50392483 903.45797277 329.19386292 902.37641239 C329.93708801 901.89688114 330.68031311 901.41734989 331.44606018 900.92328739 C333.44156466 899.70193472 335.45649413 898.63756819 337.56495667 897.62641239 C337.56495667 896.96641239 337.56495667 896.30641239 337.56495667 895.62641239 C338.11796448 895.52715458 338.67097229 895.42789677 339.24073792 895.32563114 C342.11849988 894.45988427 344.23742073 893.08294021 346.75245667 891.43891239 C347.71538635 890.81371708 348.67831604 890.18852177 349.67042542 889.54438114 C353.02832671 887.31937502 356.37056401 885.07255734 359.68995667 882.79047489 C361.56495667 881.62641239 361.56495667 881.62641239 364.56495667 880.62641239 C364.56495667 879.96641239 364.56495667 879.30641239 364.56495667 878.62641239 C365.26620667 878.36972782 365.96745667 878.11304325 366.68995667 877.84858036 C369.85296698 876.50397866 372.63755296 874.87253558 375.56495667 873.07172489 C376.12312073 872.72890476 376.68128479 872.38608463 377.25636292 872.03287601 C378.43071141 871.31025844 379.60387114 870.58570576 380.77589417 869.85932255 C382.55644201 868.75668525 384.34160934 867.66184681 386.12745667 866.56781864 C387.27357523 865.86124985 388.41941783 865.15423319 389.56495667 864.44672489 C390.59620667 863.81008915 391.62745667 863.17345341 392.68995667 862.51752567 C395.46007849 860.695399 397.98666408 858.70667488 400.56495667 856.62641239 C402.23527499 855.6627672 403.90685922 854.70082568 405.59620667 853.77094364 C408.68813531 851.97345338 411.60760977 849.92737747 414.54933167 847.89594364 C416.56495667 846.62641239 416.56495667 846.62641239 419.56495667 845.62641239 C419.56495667 844.96641239 419.56495667 844.30641239 419.56495667 843.62641239 C420.26620667 843.36972782 420.96745667 843.11304325 421.68995667 842.84858036 C424.85296698 841.50397866 427.63755296 839.87253558 430.56495667 838.07172489 C431.12312073 837.72890476 431.68128479 837.38608463 432.25636292 837.03287601 C433.43071141 836.31025844 434.60387114 835.58570576 435.77589417 834.85932255 C437.55644201 833.75668525 439.34160934 832.66184681 441.12745667 831.56781864 C442.27357523 830.86124985 443.41941783 830.15423319 444.56495667 829.44672489 C445.59620667 828.81008915 446.62745667 828.17345341 447.68995667 827.51752567 C450.46006846 825.6954056 452.99182877 823.71324974 455.56495667 821.62641239 C456.92620667 820.82203739 456.92620667 820.82203739 458.31495667 820.00141239 C460.68641476 818.82516199 460.68641476 818.82516199 461.56495667 816.62641239 C460.7868219 816.62657474 460.00868714 816.6267371 459.20697254 816.62690437 C413.10365222 816.63576373 367.00043744 816.61346554 320.89715623 816.5506221 C315.36332763 816.54310592 309.82949872 816.53585046 304.29566956 816.52875614 C303.19396888 816.52733939 302.0922682 816.52592264 300.95718265 816.52446295 C283.11104942 816.50213536 265.26497399 816.50093574 247.41883069 816.50752376 C229.11141317 816.51381254 210.80411737 816.49744384 192.49673659 816.45997632 C181.19711984 816.43756685 169.89778021 816.43289832 158.59815425 816.45081575 C150.85294896 816.46140527 143.10797171 816.45001635 135.36281335 816.42125086 C130.89200092 816.40529826 126.42173082 816.39912585 121.95092201 816.41902065 C117.85766472 816.43702165 113.76543385 816.42742276 109.67226715 816.39587356 C108.19167711 816.38933272 106.71100039 816.39291955 105.23046934 816.40766631 C92.79501946 816.52236594 92.79501946 816.52236594 88.22664738 812.72738171 C84.68813023 809.02250797 83.70854667 806.03838075 83.18995667 800.93891239 C83.53555711 791.57314023 89.32173046 783.15185836 93.63526917 775.09906864 C96.94016004 768.90725838 99.99543951 762.6333156 102.8764801 756.23359013 C104.33414442 753.04010242 105.78415862 750.30837728 107.79151917 747.39594364 C109.92446061 744.61309694 109.92446061 744.61309694 109.56495667 740.62641239 C110.22495667 740.62641239 110.88495667 740.62641239 111.56495667 740.62641239 C113.59931197 736.896761 114.56495667 734.95736197 114.56495667 730.62641239 C115.22495667 730.62641239 115.88495667 730.62641239 116.56495667 730.62641239 C118.59931197 726.896761 119.56495667 724.95736197 119.56495667 720.62641239 C120.22495667 720.62641239 120.88495667 720.62641239 121.56495667 720.62641239 C122.1102301 719.45207645 122.65550354 718.27774052 123.21730042 717.06781864 C128.06496571 706.69437909 133.18543706 696.52412467 138.59864807 686.4359827 C139.92614517 683.95002806 141.2241682 681.45050556 142.50245667 678.93891239 C142.8621051 678.2337952 143.22175354 677.52867802 143.59230042 676.80219364 C147.68737165 667.64173308 148.17828864 656.49223994 145.87745667 646.70063114 C144.94159192 644.50524842 143.87244732 642.62033564 142.56495667 640.62641239 C142.15245667 639.87359989 141.73995667 639.12078739 141.31495667 638.34516239 C137.60245172 632.01702896 132.85895257 628.28386828 126.56495667 624.62641239 C125.96296448 624.26418583 125.36097229 623.90195927 124.74073792 623.52875614 C107.48990534 615.19408422 89.648775 625.01495274 78.56105042 638.14594364 Z M296.57203674 631.24701786 C295.83364563 631.98838993 295.09525452 632.729762 294.33448792 633.49359989 C293.53204651 634.29668583 292.7296051 635.09977177 291.90284729 635.92719364 C291.06946838 636.77668583 290.23608948 637.62617802 289.37745667 638.50141239 C288.5324762 639.3431702 287.68749573 640.18492802 286.81690979 641.05219364 C282.44696598 644.74042582 282.44696598 644.74042582 280.56495667 649.62641239 C279.90495667 649.62641239 279.24495667 649.62641239 278.56495667 649.62641239 C278.56495667 650.28641239 278.56495667 650.94641239 278.56495667 651.62641239 C277.57495667 651.95641239 276.58495667 652.28641239 275.56495667 652.62641239 C275.56495667 653.28641239 275.56495667 653.94641239 275.56495667 654.62641239 C269.78455737 657.2369153 264.17610136 659.34672817 257.93995667 657.62641239 C253.67579294 655.09950056 248.84228216 652.18106338 246.56495667 647.62641239 C245.90495667 647.62641239 245.24495667 647.62641239 244.56495667 647.62641239 C244.23495667 646.96641239 243.90495667 646.30641239 243.56495667 645.62641239 C243.56495667 691.82641239 243.56495667 738.02641239 243.56495667 785.62641239 C304.94495667 785.62641239 366.32495667 785.62641239 429.56495667 785.62641239 C429.56495667 739.75641239 429.56495667 693.88641239 429.56495667 646.62641239 C425.86429187 648.47674479 425.05671806 648.99797401 422.81495667 652.06391239 C419.61681202 655.922631 416.49602534 657.71679778 411.56495667 658.62641239 C402.79021591 658.47512376 397.54270469 652.91710479 391.75245667 647.00141239 C390.8755719 646.12356083 390.8755719 646.12356083 389.98097229 645.22797489 C385.70592015 640.90833935 385.70592015 640.90833935 384.56495667 638.62641239 C383.90495667 638.62641239 383.24495667 638.62641239 382.56495667 638.62641239 C382.56495667 637.96641239 382.56495667 637.30641239 382.56495667 636.62641239 C381.23162333 634.95974572 381.23162333 634.95974572 379.56495667 633.62641239 C378.90495667 633.62641239 378.24495667 633.62641239 377.56495667 633.62641239 C376.57495667 631.64641239 376.57495667 631.64641239 375.56495667 629.62641239 C370.55054064 629.77836439 368.23140921 632.55342568 364.92042542 635.93500614 C363.35650528 637.52527245 363.35650528 637.52527245 363.56495667 639.62641239 C362.90495667 639.62641239 362.24495667 639.62641239 361.56495667 639.62641239 C360.030383 641.14361222 360.030383 641.14361222 358.43995667 643.12641239 C346.01200353 657.61282567 346.01200353 657.61282567 338.56495667 658.62641239 C330.99626849 658.5199985 326.67880782 654.78625142 321.56495667 649.62641239 C320.66261292 648.74856083 319.76026917 647.87070927 318.83058167 646.96625614 C314.74739863 642.97168746 310.74044972 638.9434178 307.06495667 634.56391239 C304.71039968 631.5253934 304.71039968 631.5253934 301.56495667 629.62641239 C298.52477174 629.31095688 298.52477174 629.31095688 296.57203674 631.24701786 Z M-354.43504333 831.62641239 C-354.43504333 836.20519404 -354.16344572 837.68949585 -352.43504333 841.62641239 C-351.23628825 844.87010262 -350.41697816 847.75512679 -349.93504333 851.18891239 C-349.47084999 854.38024167 -348.71285204 856.6949689 -347.43504333 859.62641239 C-346.23628825 862.87010262 -345.41697816 865.75512679 -344.93504333 869.18891239 C-344.47084999 872.38024167 -343.71285204 874.6949689 -342.43504333 877.62641239 C-341.23628825 880.87010262 -340.41697816 883.75512679 -339.93504333 887.18891239 C-339.47084999 890.38024167 -338.71285204 892.6949689 -337.43504333 895.62641239 C-336.23628825 898.87010262 -335.41697816 901.75512679 -334.93504333 905.18891239 C-334.59423392 908.48102652 -334.59423392 908.48102652 -333.54832458 910.82953739 C-332.12066888 914.41620928 -331.13049521 918.09360258 -330.12254333 921.81391239 C-329.67989441 923.42720994 -329.23718432 925.04049071 -328.79441833 926.65375614 C-328.45700623 927.88908085 -328.45700623 927.88908085 -328.11277771 929.14936161 C-327.04250437 933.0611027 -325.95784552 936.96881934 -324.87254333 940.87641239 C-324.6661322 941.62165165 -324.45972107 942.36689091 -324.24705505 943.13471317 C-322.94437811 947.82868211 -321.60438404 952.51032464 -320.24754333 957.18891239 C-318.97078497 961.62181742 -317.87387474 966.03873282 -316.93113708 970.55219364 C-316.21028556 973.56614764 -315.16947686 976.45124384 -314.15379333 979.37641239 C-313.43866949 981.61506095 -312.91416345 983.82663586 -312.43504333 986.12641239 C-311.8262291 989.02199229 -311.09717331 991.77069912 -310.12254333 994.56391239 C-307.77742211 1001.35180097 -305.98819184 1008.30806671 -304.0922699 1015.23139286 C-303.04923711 1019.03234074 -301.99168665 1022.82923036 -300.93504333 1026.62641239 C-300.51830105 1028.12639138 -300.10163452 1029.62639143 -299.68504333 1031.12641239 C-299.47879333 1031.86891239 -299.27254333 1032.61141239 -299.06004333 1033.37641239 C-287.18504333 1076.12641239 -287.18504333 1076.12641239 -286.55955505 1078.3788538 C-286.14498655 1079.87084661 -285.72995149 1081.36270986 -285.31443787 1082.85443974 C-284.23670277 1086.72598931 -283.16845997 1090.59981714 -282.11473083 1094.47797489 C-281.89623474 1095.27719364 -281.67773865 1096.07641239 -281.45262146 1096.89984989 C-281.03940715 1098.41203841 -280.62901594 1099.92500272 -280.22215271 1101.43891239 C-278.88070419 1106.33178902 -277.23256825 1110.83301263 -275.43504333 1115.62641239 C-226.59504333 1115.62641239 -177.75504333 1115.62641239 -127.43504333 1115.62641239 C-126.21951196 1113.71873616 -126.21951196 1113.71873616 -126.82469177 1111.84565067 C-127.06220154 1111.13650517 -127.2997113 1110.42735966 -127.54441833 1109.69672489 C-127.8030365 1108.90709354 -128.06165466 1108.1174622 -128.32810974 1107.30390263 C-128.61089783 1106.46158085 -128.89368591 1105.61925907 -129.18504333 1104.75141239 C-130.99600882 1099.22055588 -132.73996801 1093.73726984 -134.06004333 1088.06391239 C-135.12410123 1083.54953659 -136.59780639 1079.41437078 -138.47019958 1075.17328739 C-139.4923554 1072.4751271 -140.16990781 1069.75741827 -140.8434906 1066.95502567 C-142.02113565 1062.31929376 -143.4698017 1057.76048013 -144.87254333 1053.18891239 C-145.17225037 1052.20342411 -145.4719574 1051.21793583 -145.78074646 1050.20258427 C-147.57984811 1044.31355089 -149.45527279 1038.45711947 -151.43504333 1032.62641239 C-151.95587667 1031.08474572 -152.47671 1029.54307906 -152.99754333 1028.00141239 C-153.2257074 1027.32852177 -153.45387146 1026.65563114 -153.68894958 1025.96234989 C-154.67662066 1022.87006034 -155.55064234 1019.74976162 -156.43504333 1016.62641239 C-159.26302482 1006.83094029 -162.22503118 997.091635 -165.33982849 987.38349247 C-167.03213917 982.05419832 -168.43721461 976.70632775 -169.72019958 971.26313114 C-170.66979523 967.76052425 -172.006101 964.48955888 -173.47019958 961.17328739 C-174.50874506 958.43186371 -175.19081065 955.66427819 -175.8747406 952.81684208 C-176.86412933 948.94895725 -178.13796665 945.17163546 -179.37254333 941.37641239 C-181.11235264 935.97024006 -182.76114641 930.5967827 -184.06004333 925.06391239 C-185.13138223 920.52498549 -186.61238821 916.35083562 -188.47019958 912.07563114 C-189.69021465 908.97866982 -190.54896556 905.83462501 -191.43504333 902.62641239 C-194.26302482 892.83094029 -197.22503118 883.091635 -200.33982849 873.38349247 C-202.03213917 868.05419832 -203.43721461 862.70632775 -204.72019958 857.26313114 C-205.68964153 853.6873207 -207.08596523 850.35136738 -208.52488708 846.94281864 C-209.85008181 843.57011276 -210.59888839 840.15020823 -211.43504333 836.62641239 C-212.42504333 834.15141239 -212.42504333 834.15141239 -213.43504333 831.62641239 C-259.96504333 831.62641239 -306.49504333 831.62641239 -354.43504333 831.62641239 Z " fill="#000000" transform="translate(447.43504333496094,66.3735876083374)"/>
<path d="M0 0 C1.010625 -0.00773437 2.02125 -0.01546875 3.0625 -0.0234375 C6.39521961 0.42860692 8.32568351 1.35943059 11 3.375 C11 4.035 11 4.695 11 5.375 C11.66 5.375 12.32 5.375 13 5.375 C15.68244869 9.9988481 16.37620939 13.33874602 16.38095093 18.66186523 C16.38797089 19.72901213 16.38797089 19.72901213 16.39513266 20.81771755 C16.40705163 23.1898687 16.39763793 25.56143881 16.38818359 27.93359375 C16.39225068 29.63901099 16.39759334 31.34442558 16.40411377 33.04983521 C16.41777684 37.67376811 16.41249288 42.29749994 16.40297651 46.92143631 C16.39537471 51.7633035 16.40242698 56.60515361 16.40713501 61.44702148 C16.41259104 69.57766812 16.40540494 77.70823297 16.39111328 85.83886719 C16.37478707 95.23541156 16.38007568 104.63176064 16.3965925 114.02830029 C16.4102117 122.09980279 16.41212489 130.17124656 16.40427649 138.24275684 C16.39960237 143.061844 16.39896797 147.88083941 16.40888596 152.69992065 C16.41755964 157.23079432 16.41152635 161.7614165 16.39420319 166.29226303 C16.3902405 167.95390277 16.39136867 169.61556371 16.39799118 171.27719498 C16.40620558 173.5477928 16.39588715 175.81758789 16.38095093 178.08813477 C16.37981985 179.35794693 16.37868877 180.62775909 16.37752342 181.93605042 C15.9664376 185.68072781 14.87857962 188.13681438 13 191.375 C12.34 191.375 11.68 191.375 11 191.375 C10.67 192.365 10.34 193.355 10 194.375 C6.34422573 196.81218285 4.41330098 196.67380388 0.0625 196.6875 C-1.77634766 196.71263672 -1.77634766 196.71263672 -3.65234375 196.73828125 C-7.1474173 196.35900256 -8.575286 195.87263773 -11 193.375 C-11 192.715 -11 192.055 -11 191.375 C-11.66 191.375 -12.32 191.375 -13 191.375 C-15.68244869 186.7511519 -16.37620939 183.41125398 -16.38095093 178.08813477 C-16.3856309 177.3767035 -16.39031087 176.66527224 -16.39513266 175.93228245 C-16.40705163 173.5601313 -16.39763793 171.18856119 -16.38818359 168.81640625 C-16.39225068 167.11098901 -16.39759334 165.40557442 -16.40411377 163.70016479 C-16.41777684 159.07623189 -16.41249288 154.45250006 -16.40297651 149.82856369 C-16.39537471 144.9866965 -16.40242698 140.14484639 -16.40713501 135.30297852 C-16.41259104 127.17233188 -16.40540494 119.04176703 -16.39111328 110.91113281 C-16.37478707 101.51458844 -16.38007568 92.11823936 -16.3965925 82.72169971 C-16.4102117 74.65019721 -16.41212489 66.57875344 -16.40427649 58.50724316 C-16.39960237 53.688156 -16.39896797 48.86916059 -16.40888596 44.05007935 C-16.41755964 39.51920568 -16.41152635 34.9885835 -16.39420319 30.45773697 C-16.3902405 28.79609723 -16.39136867 27.13443629 -16.39799118 25.47280502 C-16.40620558 23.2022072 -16.39588715 20.93241211 -16.38095093 18.66186523 C-16.37981985 17.39205307 -16.37868877 16.12224091 -16.37752342 14.81394958 C-15.9664376 11.06927219 -14.87857962 8.61318562 -13 5.375 C-12.34 5.375 -11.68 5.375 -11 5.375 C-11 4.715 -11 4.055 -11 3.375 C-7.31832489 0.60020809 -4.56370804 -0.03492634 0 0 Z " fill="#000000" transform="translate(440,396.625)"/>
<path d="M0 0 C0.98613281 0.59748047 0.98613281 0.59748047 1.9921875 1.20703125 C9.9447569 6.57578919 17.01167472 15.46277872 19 25 C20.94077756 37.46702874 19.98247237 49.24417135 13 60 C4.27279986 71.47736825 -5.77769337 77.1963198 -20.01171875 79.296875 C-27.96162058 79.84201113 -35.59657481 76.54350804 -43 74 C-43 73.34 -43 72.68 -43 72 C-43.8971875 71.814375 -43.8971875 71.814375 -44.8125 71.625 C-47 71 -47 71 -50 69 C-50 68.34 -50 67.68 -50 67 C-50.99 66.67 -51.98 66.34 -53 66 C-53 65.34 -53 64.68 -53 64 C-53.66 64 -54.32 64 -55 64 C-57.29648649 61.4385343 -58 60.52032428 -58 57 C-58.66 57 -59.32 57 -60 57 C-65.14933192 45.76509399 -67.15356165 34.41959771 -63.0390625 22.44140625 C-59.85632483 14.96316925 -55.48118984 8.04463745 -49 3 C-48.34 3 -47.68 3 -47 3 C-47 2.34 -47 1.68 -47 1 C-33.53842777 -8.67550504 -13.9166122 -8.47955521 0 0 Z M-31 30 C-32.20190901 33.60572704 -32.32670315 36.2102435 -32 40 C-30.46162393 42.94855414 -29.3392371 44.54706386 -26.12890625 45.6328125 C-22.51703305 46.27461984 -20.51111797 46.23333646 -17.125 44.6875 C-13.97091556 42.40318249 -13.97091556 42.40318249 -12.734375 38.94140625 C-12.73953125 38.15636719 -12.7446875 37.37132812 -12.75 36.5625 C-12.74484375 35.78003906 -12.7396875 34.99757813 -12.734375 34.19140625 C-12.86823169 31.70955893 -12.86823169 31.70955893 -15 29 C-15.66 29 -16.32 29 -17 29 C-17 28.34 -17 27.68 -17 27 C-18.58246707 26.91846067 -20.16616273 26.86056443 -21.75 26.8125 C-22.63171875 26.77769531 -23.5134375 26.74289062 -24.421875 26.70703125 C-27.50493103 27.05737853 -28.78515964 27.85998533 -31 30 Z " fill="#000000" transform="translate(247,1099)"/>
<path d="M0 0 C1.010625 -0.00773437 2.02125 -0.01546875 3.0625 -0.0234375 C6.39521961 0.42860692 8.32568351 1.35943059 11 3.375 C11 4.035 11 4.695 11 5.375 C11.66 5.375 12.32 5.375 13 5.375 C16.81312616 11.17095176 16.55065202 16.97295683 16.5625 23.75 C16.59923828 24.84828125 16.63597656 25.9465625 16.67382812 27.078125 C16.70985786 33.75563676 15.93936896 37.77562554 11.51245117 42.87353516 C7.91535444 46.44450286 5.20975613 47.57712437 0.1875 47.9375 C-4.7408105 47.79038625 -7.52913782 46.22932915 -11.30859375 43.17578125 C-14.99535493 39.25061519 -16.37992999 36.00533848 -16.3984375 30.62890625 C-16.40230469 29.54416016 -16.40617187 28.45941406 -16.41015625 27.34179688 C-16.39855469 26.21837891 -16.38695312 25.09496094 -16.375 23.9375 C-16.38660156 22.81794922 -16.39820313 21.69839844 -16.41015625 20.54492188 C-16.38931323 14.69150698 -16.28972536 10.30958804 -13 5.375 C-12.34 5.375 -11.68 5.375 -11 5.375 C-11 4.715 -11 4.055 -11 3.375 C-7.31832489 0.60020809 -4.56370804 -0.03492634 0 0 Z " fill="#000000" transform="translate(440,333.625)"/>
</svg>
